<svg xmlns="http://www.w3.org/2000/svg" width="317" height="502" viewBox="0 0 317 502"><g><ellipse fill="#fff" cx="158.064" cy="157.995" rx="155.192" ry="155.123"/><ellipse fill="#04A2DD" cx="166.503" cy="445.509" rx="40.512" ry="8.494"/><path fill="#fff" d="M164.167 458.655h1.744v-72.333h-1.744v72.333zm-13.949-6.1h1.743v-72.333h-1.743v72.333zm31.386-72.333v72.333h1.744v-72.333h-1.744zm-3.487 75.819h1.744v-72.333h-1.744v72.333z"/><path fill="#EC008C" d="M71.015 289.62l-1.881-1.774s.507.68 1.881 1.774zm95.768 15.654c-67.646 1.521-89.824-10.926-95.768-15.654 8.761 8.274 45.771 43.374 59.149 58.357 15.22 17.046 16.566 30.501 16.566 30.501s11.273 7.452 20.925 7.844c10.559.428 17.437-7.844 17.437-7.844s-3.089 3.142 6.104-27.016c9.467-31.058 56.671-64.489 56.671-64.489s-24.077 17.02-81.084 18.301z"/><path fill="#F6D1B3" d="M149.5 426c-4.694 0-8.5 5.82-8.5 13s3.806 13 8.5 13 8.5-5.82 8.5-13-3.806-13-8.5-13zm32 5c-4.694 0-8.5 4.478-8.5 10s3.806 10 8.5 10 8.5-4.478 8.5-10-3.806-10-8.5-10z"/><path fill="#ED145B" d="M180.193 446.188c-1.561-.208-2.12-.473-2.12-.473v.314s1.309 1.706 2.574 1.732c.807.016 1.465.403 2.877-1.26.202-.239.303-.787.303-.787s-2.073.681-3.634.474zm-33.005-.473s.1.548.303.787c1.412 1.663 2.069 1.275 2.876 1.26 1.266-.026 2.574-1.732 2.574-1.732v-.314s-.56.265-2.12.473c-1.56.206-3.633-.474-3.633-.474z"/><path fill="#603913" d="M155 422c-4.515-1.659-10-2-10-2s-4.062 1.039-6 7l1 12 2-6s14.829 5.838 17 6h3s-2.485-15.341-7-17zm38 13c-.391-7.607-6-11-6-11s-3.868-4.511-11 0c-7.132 4.512-7 29-7 29s3.97-9.428 5-13l12-7s2.45 2.921 3 6c.658 3.684 3 11 3 11s1.172-11.65 1-15z"/><path d="M147 439h-1c-.553 0-1 .447-1 1s.447 1 1 1h1c.553 0 1-.447 1-1s-.447-1-1-1zm7 0h-1c-.553 0-1 .447-1 1s.447 1 1 1h1c.553 0 1-.447 1-1s-.447-1-1-1zm31 0h-1c-.553 0-1 .447-1 1s.447 1 1 1h1c.553 0 1-.447 1-1s-.447-1-1-1zm-7 0h-1c-.553 0-1 .447-1 1s.447 1 1 1h1c.553 0 1-.447 1-1s-.447-1-1-1z"/><path fill="#8781BD" d="M178.117 257.344c-83.757 3.854-142.442-24.205-165.392-37.602 23.946 55.397 79.807 94.247 144.902 94.247 43.91 0 83.612-17.683 112.158-46.191l27.364-36.894c1.679-3.155 3.25-6.375 4.709-9.653-17.762 14.451-53.821 32.875-123.741 36.093z"/><path fill="#00AEEF" d="M297.149 85.085l-27.363-36.894c-28.546-28.507-68.248-46.191-112.158-46.191-69.821 0-129.011 44.699-149.596 106.568 14.916 11.948 59.346 39.27 153.52 38.969 88.853-.284 132.393-19.917 148.472-29.59-3.026-11.531-7.378-22.537-12.875-32.862z"/><path fill="#E6E6E6" d="M31.915 144.934c8.518-96.197 82.034-131.746 82.034-131.746s-80.508 30.66-86.62 131.727c-6.338 104.793 77.384 159.942 77.384 159.942s-81.198-65.048-72.798-159.923zm68.537-9.815c5.688-96.79 54.836-130.253 54.836-130.253s-53.923 28.744-58.097 130.269c-4.695 114.2 59.521 179.729 59.521 179.729s-62.321-76.614-56.26-179.745zm199.219 7.15c-6.117-98.414-86.683-128.269-86.683-128.269s73.569 34.616 82.093 128.288c8.406 92.385-72.851 155.725-72.851 155.725s83.784-53.702 77.441-155.744zm-66.862-7.134c-4.173-101.525-58.097-130.269-58.097-130.269s49.147 33.463 54.836 130.253c6.062 103.131-56.26 179.744-56.26 179.744s64.215-65.528 59.521-179.728z" opacity=".702"/><ellipse fill="#fff" cx="161.5" cy="15" rx="41.5" ry="9"/><path d="M108.368 293.074c-34.888-43.625-40.542-44.915-60.159-86.276s23.104-67.077 42.722-108.063c15.542-32.474 9.451-58.16 1.744-62.746-15.667-9.323-38.389-10.432-68.006 38.345-18.238 30.034-24.761 85.274-20.053 106.319 3.042 13.598 8.997 48.642 25.284 67.976 16.287 19.333 7.412 9.725 11.334 13.943 20.653 22.217 27.2 24.211 33.131 29.63 5.931 5.42 56.886 56.724 61.902 61.875l10.463 22.659s4.447 2.019 9.59-11.33c5.143-13.347-13.064-28.707-47.952-72.332z" opacity=".22"/><path fill="#EB1D5D" d="M165.676 451.471c-15.388 0-29.484-2.458-40.435-6.537-.764 3.172-1.18 6.479-1.18 9.884 0 23.292 18.932 42.174 42.285 42.174s42.286-18.882 42.286-42.174c0-3.575-.45-7.044-1.29-10.359-11.114 4.36-25.692 7.012-41.666 7.012z"/><path fill="#F86494" d="M204.605 450.132l-8.185 2.295s2.299 12.984-10.522 27.542c-3.748 4.256-20.223 11.667-20.223 11.667 19.364-3.756 13.695-2.305 22.561-7.077 18.143-9.764 16.369-34.427 16.369-34.427z"/><ellipse fill="#fff" cx="150.238" cy="466.867" rx="8.724" ry="8.701"/><ellipse fill="#ED145B" cx="149.567" cy="466.198" rx="5.369" ry="5.354"/><ellipse fill="#fff" cx="149.567" cy="466.198" rx="2.685" ry="2.677"/></g><ellipse fill="#ED1C24" cx="187" cy="160.5" rx="50" ry="48.5" enable-background="new"/><ellipse fill="#fff" cx="192" cy="155.483" rx="40" ry="38.465" enable-background="new"/><ellipse fill="#ED1C24" cx="197.833" cy="150.465" rx="29.166" ry="28.431" enable-background="new"/><path d="M124.597 219.959c-1.295-1.385-2.824-2.572-4.596-3.526-1.771-.954-3.71-1.642-5.824-2.019-2.732-.487-5.463-1.007-8.194-1.557-.053 11.528 1.25 18.753.08 27.772 3.044.337 6.087.651 9.131.942 2.17.207 4.143.026 5.888-.513s3.223-1.339 4.412-2.382c1.189-1.045 2.081-2.296 2.667-3.765s.845-3.063.787-4.825c-.065-1.962-.492-3.788-1.258-5.491-.767-1.699-1.798-3.252-3.093-4.636zm-2.33 13.821c-.402 1.203-.98 2.196-1.724 2.985s-1.614 1.364-2.596 1.719c-.982.354-2.021.48-3.108.367-.981-.101-1.962-.205-2.943-.312.494-6.856-.201-13.045-.343-21.337.981.165 1.963.326 2.944.483 1.147.183 2.213.653 3.201 1.385.987.731 1.845 1.651 2.579 2.734.733 1.084 1.322 2.291 1.765 3.608.442 1.319.693 2.687.743 4.111.056 1.647-.116 3.053-.518 4.257zm31.945-11.252c-1.182-1.238-2.566-2.271-4.157-3.082-1.592-.812-3.294-1.315-5.113-1.483-1.835-.171-3.54.016-5.111.57-1.571.553-2.929 1.413-4.062 2.556s-2.006 2.526-2.615 4.114c-.61 1.59-.873 3.338-.812 5.237.062 1.934.43 3.694 1.099 5.32.668 1.624 1.552 3.049 2.671 4.275 1.119 1.226 2.438 2.212 3.98 2.942 1.542.731 3.231 1.135 5.072 1.208 1.824.072 3.551-.186 5.163-.759 1.611-.573 3.013-1.409 4.188-2.496s2.093-2.396 2.745-3.931c.652-1.535.954-3.244.909-5.156-.042-1.8-.42-3.487-1.126-5.075-.706-1.585-1.65-3.001-2.831-4.24zm-2.574 13.406c-.279 1.283-.709 2.391-1.283 3.325s-1.294 1.657-2.148 2.16c-.855.504-1.84.736-2.946.688-1.122-.049-2.092-.366-2.913-.949-.823-.582-1.508-1.377-2.067-2.377-.561-1-.985-2.164-1.286-3.495-.301-1.333-.476-2.78-.523-4.363-.046-1.551.046-2.992.29-4.324.242-1.331.639-2.49 1.189-3.458.55-.969 1.244-1.713 2.076-2.215.832-.504 1.81-.708 2.933-.614 1.106.092 2.084.457 2.935 1.083s1.57 1.457 2.161 2.478c.59 1.021 1.052 2.203 1.383 3.535.332 1.333.521 2.758.56 4.278.036 1.553-.082 2.962-.361 4.248zm25.159-4.284c.632-.408 1.172-.872 1.62-1.391s.794-1.085 1.036-1.699.359-1.26.35-1.938c-.012-.954-.206-1.84-.58-2.656-.375-.816-.936-1.523-1.681-2.119s-1.672-1.068-2.78-1.417c-1.109-.349-2.404-.531-3.884-.549-2.86-.033-5.718-.104-8.571-.213.047 8.815.475 16.318.257 24.374 1.863.01 3.727.008 5.59-.005.073-3.622.038-7.144-.026-10.717h.978c2.605 3.566 5.168 7.044 7.678 10.575 2.024-.053 4.05-.119 6.076-.2-2.683-3.683-5.405-7.309-8.165-11.037.769-.263 1.47-.6 2.102-1.008zm-3.153-2.958c-.233.541-.56 1.001-.979 1.379-.419.379-.914.67-1.487.871-.573.202-1.201.304-1.885.304l-1.206-.001c-.059-2.891-.126-5.833-.161-8.909.754.012 1.508.021 2.263.027.549.004 1.049.122 1.502.351.451.229.848.544 1.188.943.34.399.605.871.797 1.413.19.542.291 1.131.301 1.765.011.699-.1 1.317-.333 1.857zm11.773-8.966c.005 8.428.205 15.941.184 23.852 1.858-.087 3.718-.185 5.578-.296-.013-7.893-.164-15.399-.148-23.792-1.874.095-3.745.173-5.614.236zm28.27-2.192c-.088 5.378-.138 10.345-.133 15.279-4.345-4.429-8.68-8.972-13.021-13.947-1.209.098-2.417.188-3.625.271-.04 8.377.06 15.872.104 23.756 1.183-.087 2.365-.179 3.548-.276-.043-5.416-.089-10.644-.095-16.104 4.745 5.203 9.453 10.05 14.261 15.044.803-.095 1.606-.192 2.409-.292-.135-8.043-.061-15.56.106-24.187-1.185.159-2.371.311-3.554.456zm29.814-5.056c-1.49.324-2.978.637-4.465.938-3.597 4.049-7.128 7.728-10.597 11.264.062-2.992.147-6.07.246-9.334-1.916.325-3.83.633-5.741.922-.21 8.579-.335 15.971-.191 23.901 1.883-.262 3.767-.538 5.651-.829-.068-3.408-.074-6.707-.038-10.046 3.567 2.775 7.15 5.449 10.826 8.224 2.271-.417 4.545-.856 6.819-1.317-4.964-3.667-9.741-7.136-14.52-10.899 3.919-4 7.92-8.16 12.01-12.824zm22.734-5.764c-.469 6.282-.882 11.43-1.058 16.506-.032.918-.193 1.812-.485 2.687-.292.873-.691 1.681-1.201 2.419-.511.739-1.129 1.381-1.857 1.92-.729.538-1.539.918-2.433 1.135-.909.222-1.732.239-2.467.059-.735-.181-1.362-.516-1.878-1-.517-.484-.911-1.093-1.18-1.825s-.394-1.553-.371-2.466c.121-5.044.431-10.145.785-16.149-1.932.485-3.859.951-5.785 1.399-.305 5.87-.568 10.938-.668 15.954-.023 1.224.187 2.328.629 3.32.442.991 1.108 1.81 1.995 2.451s1.98 1.069 3.277 1.271 2.794.11 4.488-.291c1.896-.448 3.51-1.097 4.847-1.933 1.336-.836 2.429-1.794 3.284-2.859.855-1.064 1.487-2.206 1.903-3.415s.647-2.42.694-3.642c.193-5.087.641-10.25 1.147-16.625-1.221.368-2.444.729-3.666 1.084z" enable-background="new"/></svg>