<svg xmlns="http://www.w3.org/2000/svg" width="250" height="250" viewBox="0 0 250 250"><path stroke="#fff" stroke-width="2" stroke-miterlimit="10" fill="none" d="M124.75 125v-74.997M124.75 125l-37.498-64.949M124.75 125l-64.949-37.499M124.75 125h-74.997M124.75 125l-64.949 37.498M124.75 125l-37.499 64.949M124.75 125v74.997M124.75 125l37.498 64.949M124.75 125l64.949 37.498M124.75 125h74.996M124.75 125l64.948-37.499M124.75 125l37.497-64.949"/><ellipse stroke="#448CCB" stroke-width="7.5" stroke-miterlimit="10" cx="125" cy="124.23" rx="107" ry="107.197" fill="none"/><ellipse stroke="#A186BE" stroke-width="26" stroke-miterlimit="10" cx="125" cy="124.23" rx="90" ry="90.166" fill="none"/><ellipse stroke="#fff" stroke-width="3" stroke-miterlimit="10" cx="124.75" cy="123.981" rx="102.75" ry="102.939" fill="none"/><ellipse fill="#fff" cx="125.5" cy="124.491" rx="52.5" ry="52.506"/><ellipse stroke="#fff" stroke-width="7" stroke-miterlimit="10" cx="125" cy="125" rx="74.68" ry="75.938" fill="none"/><ellipse fill="#EB1D5D" cx="125.5" cy="124.227" rx="45" ry="45.083"/><ellipse fill="#fff" cx="129.52" cy="118.591" rx="31.34" ry="31.397"/><ellipse fill="#EB1D5D" cx="135.505" cy="110.502" rx="20.495" ry="20.495"/><g><g><circle fill="#EB1D5D" cx="125.004" cy="29.002" r="15.996"/><circle stroke="#fff" stroke-miterlimit="10" cx="125.004" cy="29.002" r="15.996" fill="none"/></g><g><circle fill="#04A2DD" cx="125.002" cy="29.001" r="7.998"/><circle stroke="#fff" stroke-miterlimit="10" cx="125.002" cy="29.001" r="7.998" fill="none"/></g><circle fill="#CFF2FB" cx="125.001" cy="29" r="2"/></g><g><g><circle fill="#EB1D5D" cx="125.004" cy="219.002" r="15.996"/><circle stroke="#fff" stroke-miterlimit="10" cx="125.004" cy="219.002" r="15.996" fill="none"/></g><g><circle fill="#04A2DD" cx="125.002" cy="219.001" r="7.998"/><circle stroke="#fff" stroke-miterlimit="10" cx="125.002" cy="219.001" r="7.998" fill="none"/></g><circle fill="#CFF2FB" cx="125.001" cy="219" r="2"/></g><g><g><circle fill="#EB1D5D" cx="30.003" cy="120.002" r="15.996"/><circle stroke="#fff" stroke-miterlimit="10" cx="30.003" cy="120.002" r="15.996" fill="none"/></g><g><circle fill="#04A2DD" cx="30.002" cy="120.001" r="7.998"/><circle stroke="#fff" stroke-miterlimit="10" cx="30.002" cy="120.001" r="7.998" fill="none"/></g><circle fill="#CFF2FB" cx="30" cy="120" r="2"/></g><g><g><circle fill="#EB1D5D" cx="220.004" cy="120.002" r="15.996"/><circle stroke="#fff" stroke-miterlimit="10" cx="220.004" cy="120.002" r="15.996" fill="none"/></g><g><circle fill="#04A2DD" cx="220.002" cy="120.001" r="7.998"/><circle stroke="#fff" stroke-miterlimit="10" cx="220.002" cy="120.001" r="7.998" fill="none"/></g><circle fill="#CFF2FB" cx="220" cy="120" r="2"/></g><g><g><circle fill="#EB1D5D" cx="192.004" cy="191.002" r="15.996"/><circle stroke="#fff" stroke-miterlimit="10" cx="192.004" cy="191.002" r="15.996" fill="none"/></g><g><circle fill="#04A2DD" cx="192.002" cy="191.001" r="7.998"/><circle stroke="#fff" stroke-miterlimit="10" cx="192.002" cy="191.001" r="7.998" fill="none"/></g><circle fill="#CFF2FB" cx="192.001" cy="191" r="2"/></g><g><g><circle fill="#EB1D5D" cx="192.004" cy="58.002" r="15.996"/><circle stroke="#fff" stroke-miterlimit="10" cx="192.004" cy="58.002" r="15.996" fill="none"/></g><g><circle fill="#04A2DD" cx="192.002" cy="58.001" r="7.998"/><circle stroke="#fff" stroke-miterlimit="10" cx="192.002" cy="58.001" r="7.998" fill="none"/></g><circle fill="#CFF2FB" cx="192.001" cy="58" r="2"/></g><g><g><circle fill="#EB1D5D" cx="58.003" cy="58.002" r="15.996"/><circle stroke="#fff" stroke-miterlimit="10" cx="58.003" cy="58.002" r="15.996" fill="none"/></g><g><circle fill="#04A2DD" cx="58.002" cy="58.001" r="7.998"/><circle stroke="#fff" stroke-miterlimit="10" cx="58.002" cy="58.001" r="7.998" fill="none"/></g><circle fill="#CFF2FB" cx="58" cy="58" r="2"/></g><g><g><circle fill="#EB1D5D" cx="58.003" cy="191.002" r="15.996"/><circle stroke="#fff" stroke-miterlimit="10" cx="58.003" cy="191.002" r="15.996" fill="none"/></g><g><circle fill="#04A2DD" cx="58.002" cy="191.001" r="7.998"/><circle stroke="#fff" stroke-miterlimit="10" cx="58.002" cy="191.001" r="7.998" fill="none"/></g><circle fill="#CFF2FB" cx="58" cy="191" r="2"/></g></svg>