<svg xmlns="http://www.w3.org/2000/svg" width="150" height="171" viewBox="0 0 150 171"><path d="M102.279 81.137c-9.375-25.268-37.349-38.109-62.48-28.683-25.131 9.427-37.903 37.553-28.527 62.821 8.604 23.187 32.866 35.895 56.223 30.55l13.876 16.123.324-21.836c19.758-11.846 28.912-36.532 20.584-58.975z" opacity=".302" enable-background="new"/><path fill-rule="evenodd" clip-rule="evenodd" fill="#ED1C24" stroke="#fff" stroke-width="4" stroke-miterlimit="10" d="M93.297 138.449l-9.627 24.718-9.016-24.279c-28.944-3.889-51.271-28.717-51.271-58.786 0-32.769 26.509-59.333 59.211-59.333 32.701 0 59.21 26.564 59.21 59.333 0 29.104-20.919 53.296-48.507 58.347z" enable-background="new"/><circle fill="#9E0B0F" cx="85.271" cy="79.102" r="46.5" enable-background="new"/><path d="M86.539 59.093c-15.056-5.669-14.775 12.687-14.775 12.687s-24.501-16.592-36.442-6.197c-26.75 23.287 60.745 43.47 60.745 43.47s15.844-40.407-9.528-49.96z" opacity=".302" enable-background="new"/><path fill="#fff" d="M123.947 51.069c-15.131-9.776-28.676 12.677-28.676 12.677s-13.544-22.453-28.676-12.677c-28.099 18.156 28.676 57.532 28.676 57.532s56.776-39.375 28.676-57.532z" enable-background="new"/></svg>