<svg xmlns="http://www.w3.org/2000/svg" width="279" height="112" viewBox="0 0 279 112"><path d="M48.839 33.052h-32.037c-4.423 0-8.009 3.589-8.009 8.016v32.064c0 4.427 3.586 8.016 8.009 8.016h32.037c4.424 0 8.009-3.589 8.009-8.016v-32.065c0-4.426-3.585-8.015-8.009-8.015zm217.165.599h-195.95c-4.424 0-8.009 3.589-8.009 8.016v32.064c0 4.427 3.585 8.016 8.009 8.016h195.95c4.423 0 8.009-3.589 8.009-8.016v-32.064c0-4.427-3.586-8.016-8.009-8.016z" opacity=".502" enable-background="new"/><path fill-rule="evenodd" clip-rule="evenodd" fill="#8DC63F" stroke="#fff" stroke-width="2" stroke-miterlimit="10" d="M12.009 24.659h32.037c4.423 0 8.009 3.589 8.009 8.016v32.064c0 4.427-3.586 8.017-8.009 8.017h-32.037c-4.423 0-8.009-3.59-8.009-8.017v-32.064c0-4.427 3.586-8.016 8.009-8.016z" enable-background="new"/><path fill="#A0DE4C" d="M38.44 29.469h-20.824c-4.423 0-8.009 2.871-8.009 6.413v9.619h36.843v-9.619c-.001-3.542-3.587-6.413-8.01-6.413z" enable-background="new"/><path fill="#fff" d="M27.627 37.484l-12.414 11.223h4.806v11.223h4.805v-6.413h6.407v6.413h4.806v-11.223h4.005z" enable-background="new"/><path fill-rule="evenodd" clip-rule="evenodd" fill="#ED1C24" stroke="#fff" stroke-width="2" stroke-miterlimit="10" d="M259.616 72.756h-197.949c-4.423 0-8.009-3.59-8.009-8.017v-32.064c0-4.427 3.586-8.016 8.009-8.016h197.949c4.424 0 8.01 3.589 8.01 8.016v32.064c0 4.427-3.586 8.017-8.01 8.017z" enable-background="new"/><path fill="#F5464D" d="M254.209 30.271h-185.334c-4.424 0-8.009 3.589-8.009 8.016v8.818h201.353v-8.818c0-4.428-3.586-8.016-8.01-8.016z" enable-background="new"/><path fill="#fff" d="M191.162 52.882c.265-.036.365-.12.378-.253l-2.267-.121v4.327h-3.742v1.712h7.747v.795h-7.28v1.651h7.28v.855h-8.049v1.712h8.049v.446h1.852v-7.172h-3.968v-3.952zm.995 2.94l1.638.627c.491-.723 1.121-1.832 1.474-2.712.214 0 .365-.06.429-.169l-2.28-.747c-.278.965-.795 2.182-1.261 3.001zm-3.829-.156c-.252-.771-.844-1.88-1.486-2.712l-1.676.614c.593.856 1.185 2.037 1.387 2.809l1.775-.711zm12.494 2.482c.592-.819 1.096-1.724 1.448-2.64.101-.048.188-.12.228-.217l-1.185-.626-.277.06h-.44v-1.832c.252-.048.365-.132.377-.265l-2.191-.108v2.205h-1.725v1.579h3.01c-.793 1.398-2.053 2.651-3.426 3.351.277.338.705 1.205.855 1.676.441-.266.869-.579 1.285-.929v3.568h1.814v-4.158c.377.373.756.759 1.008 1.072l1.07-1.435c-.277-.216-1.234-.902-1.851-1.301zm5.555-.325h2.242v-1.699h-2.242v-3.098c.265-.048.378-.133.391-.265l-2.28-.121v3.483h-2.229v1.699h2.229v4.074h-2.759v1.724h7.205v-1.724h-2.557v-4.073zm9.118-4.291c-3.161 0-5.831 2.182-5.831 5.352 0 2.134 1.02 3.278 2.543 3.278 2.192 0 3.427-1.964 3.98-6.268.189 0 .354-.096.403-.204l-1.89-.398c.252-.036.492-.06.756-.06 2.028 0 3.477 1.072 3.477 3.001 0 1.735-.995 3.037-3.854 3.579.528.494.944 1.098 1.234 1.543 3.236-.831 4.672-2.338 4.672-5.158.001-2.736-1.95-4.665-5.49-4.665zm-3.224 6.822c-.528 0-.718-.663-.718-1.543 0-1.543 1.045-2.904 2.658-3.398-.164 2.579-.857 4.941-1.94 4.941zm17.999-7.002c.252-.048.34-.12.352-.241l-1.977-.108v4.026h1.625v-3.677zm2.669 7.871l.139.012c.101 0 .201-.024.252-.084l-.971-.735h1.197v-1.362h-4.887v-.338c.264-.048.377-.12.39-.265l-1.386-.072c.354-.169.441-.422.441-.964v-1.315h-2.18v-.301h2.344v-1.146h-2.344v-.325h1.99v-1.085h-1.99v-.397c.24-.048.328-.121.341-.241l-1.89-.097v.735h-.479l.062-.181c.139.012.24-.024.29-.12l-1.499-.422c-.15.614-.416 1.313-.73 1.747.215.097.491.241.743.386h-.794v1.146h2.406v.301h-1.965v2.447h1.36v-1.423h.604v1.676h1.549v-1.676h.655c0 .374 0 .422-.126.422l-.504-.012c.139.277.34.687.429 1.024h.44v.494h-4.836v1.362h3.061c-.945.313-2.078.542-3.225.663.327.312.756.88.957 1.241.68-.097 1.348-.253 1.978-.435v.422c-.491.049-.958.085-1.348.109l.642 1.566c.102-.012.189-.084.215-.193 1.146-.132 2.896-.337 4.572-.554l-.038-1.109c.92.94 2.192 1.543 3.98 1.856.202-.422.63-1.061.982-1.386-.933-.121-1.726-.313-2.405-.603.571-.251 1.175-.552 1.578-.768zm-8.552-6.57h-1.121l.189-.325h.932v.325zm2.129 7.497v-.747c.252-.024.353-.121.365-.253l-.201-.024c.365-.181.692-.386 1.008-.603.264.542.578 1.013.957 1.422-.719.073-1.437.145-2.129.205zm2.821-1.735h2.054c-.416.265-.895.554-1.349.771-.265-.229-.503-.482-.705-.771zm1.071-1.531c2.254 0 2.656-.35 2.656-1.519v-4.447c.252-.036.341-.12.354-.253l-2.003-.072v4.736c0 .157-.063.193-.239.205-.176 0-.793 0-1.285-.024.202.374.441.965.517 1.374zm11.511 3.194c-2.167 0-3.54 0-4.245-1.121v-3.784h-3.086v1.615h1.298v2.241c-.529.361-1.108.699-1.625.977l.907 1.929c.15-.049.201-.121.201-.277.453-.338.982-.771 1.499-1.205 1.146 1.277 2.456 1.337 5.58 1.337 1.209 0 2.481-.036 3.426-.084.088-.519.378-1.362.579-1.784-1.271.108-3.048.156-4.534.156zm-5.416-6.34l1.461-1.157c-.429-.566-1.348-1.302-2.065-1.796l-1.361 1.049c.718.542 1.6 1.35 1.965 1.904zm8.816 6.074v-3.832h-6.335v3.868h1.713v-.312h2.821v.276h1.801zm-4.622-1.735v-.735h2.821v.735h-2.821zm-1.461-3.929h-1.234v1.458h8.162v-1.458h-3.162v-.893h2.607v-1.47h-2.607v-.904c.252-.048.365-.133.378-.266l-2.191-.108v.566l-1.94-.47c-.252 1.073-.742 2.254-1.359 2.941.389.158.943.387 1.346.604zm1.65-2.905c.151 0 .252-.036.303-.108v.651h-.479l.176-.543zm-.819 2.013h1.121v.893h-1.675c.202-.266.39-.567.554-.893z" enable-background="new"/><path fill="#fff" d="M80.801 40.219l-4.147-4.729h-2.789v12.752h3.212v-7.96l3.483 3.998h.482l3.483-3.998v7.96h3.212v-12.752h-2.792l-4.144 4.729zm13.14-4.729l-5.208 12.752h3.404l.963-2.52h5.774l1.062 2.52h3.454l-5.727-12.752h-3.722zm.009 8.005l1.894-4.956 2.09 4.956h-3.984zm20.302-.21l-6.885-7.795h-2.945v12.752h3.212v-8.17l7.118 8.17h2.713v-12.752h-3.212v7.795zm15.2-.684c0 1.011-.297 1.789-.891 2.337s-1.386.821-2.377.821c-.954 0-1.725-.268-2.312-.803s-.881-1.247-.881-2.136v-7.33h-3.221v7.257c0 1.825.564 3.226 1.693 4.199 1.129.974 2.715 1.46 4.758 1.46 2.067 0 3.658-.48 4.772-1.442 1.114-.961 1.671-2.373 1.671-4.235v-7.239h-3.212v7.111zm14.407-1.926h-5.668v-2.848h5.668v-2.337h-8.88v12.752h3.212v-5.23h5.668v-2.337zm4.754-5.185l-5.209 12.752h3.404l.963-2.52h5.773l1.062 2.52h3.455l-5.728-12.752h-3.72zm.009 8.005l1.895-4.956 2.09 4.956h-3.985zm17.044 2.264c-1.342 0-2.441-.367-3.3-1.104-.858-.735-1.288-1.67-1.288-2.802 0-1.126.436-2.053 1.307-2.779.871-.728 1.992-1.092 3.364-1.092 1.396 0 2.876.436 4.439 1.306v-2.839c-1.273-.748-2.831-1.123-4.671-1.123-2.307 0-4.176.64-5.607 1.917-1.43 1.278-2.146 2.833-2.146 4.665s.679 3.373 2.035 4.623c1.356 1.251 3.181 1.876 5.47 1.876 1.766 0 3.455-.423 5.066-1.269v-2.784c-1.219.59-2.135.972-2.75 1.146s-1.255.259-1.919.259zm5.841-7.932h4.671v10.415h3.211v-10.415h4.671v-2.337h-12.553v2.337zm23.599 4.774c0 1.011-.297 1.789-.891 2.337-.595.548-1.386.821-2.377.821-.954 0-1.725-.268-2.312-.803-.588-.535-.883-1.247-.883-2.136v-7.33h-3.221v7.257c0 1.825.564 3.226 1.693 4.199s2.715 1.46 4.759 1.46c2.067 0 3.657-.48 4.772-1.442 1.113-.961 1.67-2.373 1.67-4.235v-7.239h-3.212v7.111zm13.29-.325c1.477-.675 2.215-1.715 2.215-3.119 0-1.016-.391-1.881-1.172-2.596-.782-.714-1.797-1.071-3.047-1.071h-5.76v12.752h3.213v-5.176h.923c.425 0 .823.167 1.195.502s.819 1.093 1.343 2.273c.522 1.181.889 1.98 1.1 2.4h3.525c-.544-1.131-1.107-2.336-1.689-3.612-.584-1.276-1.199-2.061-1.846-2.353zm-1.564-1.925c-.318.253-.747.379-1.288.379h-1.698v-2.902h1.624c1.225 0 1.837.48 1.837 1.441 0 .468-.159.83-.475 1.082zm6.232 7.891h3.212v-12.752h-3.212v12.752zm15.561-4.957l-6.885-7.795h-2.945v12.752h3.212v-8.17l7.117 8.17h2.713v-12.752h-3.212v7.795zm13.123-1.806v2.336h1.864v1.488c-.714.305-1.425.456-2.132.456-1.335 0-2.412-.347-3.23-1.04-.818-.694-1.228-1.601-1.228-2.721 0-1.168.409-2.13 1.228-2.884.818-.755 1.984-1.133 3.498-1.133 1.569 0 3.175.393 4.818 1.178v-2.784c-1.495-.699-3.19-1.05-5.086-1.05-2.295 0-4.164.61-5.607 1.831-1.443 1.22-2.164 2.798-2.164 4.732 0 1.893.721 3.452 2.164 4.679 1.443 1.226 3.287 1.839 5.533 1.839 1.021 0 2.054-.159 3.097-.479 1.043-.319 1.82-.731 2.331-1.236v-5.212h-5.086z" enable-background="new"/></svg>