<svg xmlns="http://www.w3.org/2000/svg" width="3000" height="1874" viewBox="0 0 3000 1874"><path d="M607.728 1063.154c0-14.035-11.375-25.412-25.407-25.412h-311.242c-14.032 0-25.408 11.377-25.408 25.412v67.344c0 14.035 11.376 25.413 25.408 25.413h311.241c14.032 0 25.407-11.378 25.407-25.413v-18.759l36.841-18.09-36.841-14.33v-16.165zm-217.224-779.558l16.798-43.202h23.854c14.032 0 25.407-11.377 25.407-25.412v-71.156c0-14.035-11.375-25.412-25.407-25.412h-219.774c-14.032 0-25.408 11.377-25.408 25.412v71.156c0 14.035 11.375 25.412 25.408 25.412h157.919l21.203 43.202zm1844.086 506.088h38.676c14.032 0 25.407-11.378 25.407-25.413v-83.861c0-14.035-11.375-25.413-25.407-25.413h-354.434c-14.033 0-25.408 11.378-25.408 25.413v83.861c0 14.035 11.375 25.413 25.408 25.413h271.051l24.945 50.825 19.762-50.825zm234.003 565.78h-247.723c-14.032 0-25.407 11.378-25.407 25.413v67.344c0 14.035 11.375 25.412 25.407 25.412h177.066l26.194 53.367 20.749-53.367h23.714c14.032 0 25.407-11.377 25.407-25.412v-67.344c0-14.035-11.375-25.413-25.407-25.413z" opacity=".302" enable-background="new"/><path d="M2316.436 329.515v-16.144c0-14.017-9.438-25.38-21.082-25.38h-258.259c-11.644 0-21.082 11.363-21.082 25.38v67.254c0 14.017 9.438 25.38 21.082 25.38h258.259c11.644 0 21.082-11.363 21.082-25.38v-18.734l30.569-18.065-30.569-14.311z" opacity=".302" enable-background="new"/><path fill="#ED1C24" d="M376.53 258.183l16.797-43.201h23.855c14.032 0 25.407-11.378 25.407-25.413v-71.155c0-14.035-11.375-25.413-25.407-25.413h-219.774c-14.033-.001-25.408 11.377-25.408 25.412v71.155c0 14.035 11.375 25.413 25.408 25.413h157.918l21.204 43.202zm214.223 781.558c0-14.034-11.375-25.412-25.407-25.412h-311.242c-14.032 0-25.407 11.378-25.407 25.412v67.344c0 14.035 11.375 25.413 25.407 25.413h311.241c14.032 0 25.407-11.378 25.407-25.413v-18.759l36.842-18.089-36.842-14.33v-16.166zm1624.863-263.47h38.676c14.032 0 25.407-11.377 25.407-25.412v-83.862c0-14.035-11.375-25.413-25.407-25.413h-354.435c-14.032 0-25.407 11.378-25.407 25.413v83.862c0 14.035 11.375 25.412 25.407 25.412h271.052l24.945 50.825 19.762-50.825zm239.003 563.781h-247.724c-14.032 0-25.407 11.378-25.407 25.412v67.344c0 14.035 11.375 25.413 25.407 25.413h177.067l26.192 53.367 20.75-53.367h23.714c14.031 0 25.407-11.378 25.407-25.413v-67.344c.001-14.034-11.375-25.412-25.406-25.412z" enable-background="new"/><path fill="#ED1C24" d="M2304.046 305.508v-16.144c0-14.017-9.866-25.379-22.038-25.379h-269.962c-12.171 0-22.037 11.362-22.037 25.379v67.255c0 14.017 9.866 25.379 22.037 25.379h269.962c12.172 0 22.038-11.362 22.038-25.379v-18.734l31.954-18.066-31.954-14.311z" enable-background="new"/><path fill="#F5464D" d="M558.872 1025.224l-298.191.039c-25.047-1.024-22.46 19.042-22.46 19.042v22.85h340.357v-21.58c0-.001-1.823-20.419-19.706-20.351zm-127.725-878.857v-21.581s-1.32-20.417-14.265-20.351l-215.855.04c-18.131-1.024-16.258 19.041-16.258 19.041v22.851h246.378zm2020.553 1204.391l-240.333.04c-20.188-1.024-18.103 19.041-18.103 19.041v22.85h274.318v-21.58c.001-.001-1.469-20.418-15.882-20.351zm-188.22-658.537v-21.58c.077-.001 3.157-20.471-15.547-20.401-6.075.051-333.265.09-333.265.09-27.483-1.024-24.645 19.042-24.645 19.042v22.85h373.457z" enable-background="new"/><path fill="#F5464D" d="M2276.88 273.991c-4.665.044-255.891.079-255.891.079-21.103-.903-18.923 16.787-18.923 16.787v20.145h286.751v-19.025c.059-.001 2.424-18.048-11.937-17.986z" enable-background="new"/><path fill="#fff" d="M2273.787 1420.722c-1.191 0-2.838.247-4.435.668 0-.865.025-1.779.051-2.743 1.546-.173 2.889-.444 4.104-.766l-.431-3.707c-1.089.396-2.28.667-3.548.865.051-1.014.102-2.002.178-2.966.406-.049.659-.321.659-.593l-4.688-.099v4.003c-1.622.049-3.421.074-5.448.074l.076 3.583c1.977 0 3.775-.024 5.372-.099v3.756c-4.511 1.952-6.184 4.497-6.184 6.548 0 3.286 2.788 4.398 4.916 4.398 3.421 0 4.941-2.125 4.941-4.423v-4.621c1.495-.42 3.066-.667 4.333-.667 2.356 0 3.699 1.187 3.699 2.965 0 1.705-.938 2.892-2.686 2.892-1.039 0-2.002-.594-2.787-1.508-.507.914-1.242 2.101-1.875 2.892 1.343 1.458 2.939 2.101 4.611 2.101 4.562 0 6.639-2.645 6.639-6.376.003-4.225-3.417-6.177-7.497-6.177zm-9.502 9.76c-.812 0-1.293-.444-1.293-1.31 0-1.358 1.546-2.348 2.687-3.063.024 1.186.024 2.372.024 2.94 0 .989-.506 1.433-1.418 1.433zm9.933-13.639c2.027.741 4.257 1.927 5.676 3.163l2.129-3.213c-1.444-1.186-3.726-2.372-5.93-3.039l-1.875 3.089zm20.954-5.19h-10.086v22.585h3.649v-13.021h6.437v-9.564zm-3.446 6.869h-2.99v-.914h2.99v.914zm0-3.286h-2.99v-.89h2.99v.89zm4.839 6.005h6.613v8.797c0 .444-.177.617-.658.617h-1.647v-8.03h-10.06v9.464h3.396v-1.359h4.738c.507.964 1.039 2.546 1.166 3.509 5.32 0 6.791-.593 6.791-4.151v-18.434h-10.339v9.587zm.862 6.573h-3.218v-2.273h3.218v2.273zm2.635-13.492h3.116v.914h-3.116v-.914zm0 3.286h3.116v.964h-3.116v-.964zm25.135-2.669l-2.458 2.793c2.99 1.804 5.018 4.2 5.803 8.697l4.055-1.309c-.812-4.966-3.903-8.302-7.4-10.181zm-8.413 13.37c-1.292 0-2.534-2.026-2.534-6.523 0-2.373.33-5.115.735-7.043.278-.024.583-.223.634-.445l-4.865-.864c-.33 2.446-.482 4.967-.482 7.24 0 .988.026 1.927.076 2.792.203 3.707 2.002 8.945 6.311 8.945 2.432 0 4.206-1.681 5.371-5.856-.887-.494-2.406-1.705-3.142-2.422-.38 1.728-1.318 4.176-2.104 4.176zm21.157 5.979h3.623v-.865h9.098v.865h3.801v-10.354h-16.521v10.354zm3.623-7.19h9.098v3.188h-9.098v-3.188zm6.513-15.519c.405-.049.659-.271.76-.568l-4.84-.271c-1.824 2.965-5.903 6.696-10.237 8.723.761.692 1.774 2.026 2.256 2.866 1.292-.667 2.584-1.458 3.775-2.273v1.804h12.67v-1.704c1.19.814 2.407 1.531 3.623 2.149.659-1.087 1.496-2.323 2.408-3.237-3.776-1.41-7.982-4.326-10.415-7.489zm-6.462 7.117c1.799-1.434 3.319-2.966 4.358-4.399 1.064 1.434 2.661 2.966 4.485 4.399h-8.843zm32.738-1.804c-1.926 0-4.511.767-6.842 2.323.507-1.26.634-1.482 1.773-3.533-.481-.223-.963-.445-1.444-.643.102-1.014.127-1.631.254-2.768.481-.074.633-.297.709-.544l-4.688-.321c0 .124-.025 2.644-.076 4.102-1.343.198-3.496.321-4.713.321l.152 3.559c1.697-.124 3.648-.321 4.408-.47l-.076 1.557c-.304.692-1.672 2.916-5.169 5.782l1.724 3.312c1.115-.741 2.686-2.396 3.395-3.484v7.339h3.726c-.051-1.26-.051-3.632-.051-5.979v-4.324c1.825-1.656 4.612-2.768 6.563-2.768 2.508 0 3.674 1.878 3.674 4.053 0 3.188-2.736 4.447-8.134 5.041.558.938 1.14 2.347 1.444 3.336 6.335-.568 10.592-2.941 10.592-8.477 0-4.696-3.066-7.414-7.221-7.414zm22.043 13.022c-.584 0-1.064 0-1.42-.024-2.255-.099-3.116-.741-3.294-2.718-.075-.939-.127-3.064-.127-5.239 1.622-.296 3.675-.617 5.778-.938 0 1.161-.051 2.322-.152 2.965-.076.445-.507.767-.963.767-.355 0-1.47-.198-2.433-.767-.025.964-.152 2.348-.354 3.04 1.14.543 2.355.938 3.623.938 4.08 0 4.08-3.484 4.08-7.487 1.875-.247 3.648-.444 4.891-.544l-.279-3.607c-1.241.148-2.99.42-4.662.667-.051-1.507-.076-3.311-.152-4.62.405-.174.558-.347.558-.594l-4.562-.123c.152 1.581.229 3.979.33 5.979-1.977.321-3.953.643-5.677.939.051-1.557.026-3.36.102-4.424.532-.147.71-.321.761-.617l-4.789-.347c-.026.767 0 1.285.05 6.03-1.748.321-3.725.617-4.814.766l.583 3.509c.811-.197 2.812-.568 4.257-.865.051 1.928.102 3.781.203 4.819.507 5.436 4.308 5.782 9.021 5.782 1.85 0 4.156-.074 6.107-.321l-.076-3.484c-1.927.395-4.689.518-6.59.518z" enable-background="new"/><text transform="matrix(.992 0 0 1 2198.508 1397.509)" fill="#fff" font-family="'Gill Sans','Gill Sans MT',Verdana,sans-serif" font-size="42" letter-spacing="-1.008">CONTACT US</text><path fill="#fff" d="M2032.975 725.903l3.294 1.284c.988-1.482 2.255-3.756 2.965-5.56.431 0 .734-.123.861-.346l-4.587-1.532c-.557 1.978-1.596 4.474-2.533 6.154zm-7.704-.321c-.507-1.582-1.697-3.855-2.99-5.561l-3.37 1.261c1.191 1.754 2.383 4.176 2.788 5.757l3.572-1.457zm5.702-5.708c.532-.075.734-.247.76-.52l-4.561-.247v8.871h-7.526v3.509h15.584v1.631h-14.646v3.386h14.646v1.754h-16.192v3.509h16.192v.914h3.725v-14.702h-7.981v-8.105zm30.607 10.131h4.511v-3.484h-4.511v-6.351c.533-.099.761-.271.786-.543l-4.587-.248v7.142h-4.484v3.484h4.484v8.352h-5.549v3.534h14.494v-3.534h-5.145v-8.352zm-11.174.667c1.19-1.681 2.204-3.533 2.914-5.412.202-.099.38-.246.456-.444l-2.382-1.285-.559.124h-.887v-3.756c.508-.1.735-.271.761-.544l-4.409-.223v4.522h-3.472v3.237h6.057c-1.597 2.866-4.131 5.436-6.893 6.869.558.692 1.419 2.471 1.723 3.435.888-.544 1.749-1.186 2.585-1.902v7.314h3.648v-8.525c.761.766 1.521 1.557 2.027 2.199l2.154-2.94c-.556-.445-2.482-1.854-3.723-2.669zm29.519-9.464c-6.36 0-11.732 4.473-11.732 10.972 0 4.373 2.053 6.721 5.118 6.721 4.41 0 6.893-4.027 8.008-12.85.38 0 .709-.197.811-.42l-3.801-.815c.507-.074.988-.123 1.521-.123 4.08 0 6.994 2.199 6.994 6.152 0 3.559-2.002 6.228-7.755 7.339 1.064 1.014 1.901 2.249 2.483 3.163 6.513-1.705 9.401-4.794 9.401-10.576 0-5.61-3.928-9.563-11.048-9.563zm-6.487 13.986c-1.064 0-1.444-1.359-1.444-3.163 0-3.163 2.104-5.955 5.347-6.969-.33 5.289-1.724 10.132-3.903 10.132zm41.581 1.779l.278.025c.203 0 .405-.05.507-.173l-1.951-1.508h2.407v-2.792h-9.832v-.692c.532-.099.761-.247.785-.543l-2.787-.148c.71-.347.887-.865.887-1.977v-2.694h-4.383v-.617h4.713v-2.348h-4.713v-.667h4.004v-2.224h-4.004v-.816c.48-.099.658-.246.684-.494l-3.801-.197v1.508h-.963l.127-.371c.278.024.48-.05.582-.247l-3.015-.865c-.304 1.261-.837 2.693-1.47 3.583.431.198.988.494 1.495.791h-1.597v2.348h4.84v.617h-3.953v5.017h2.736v-2.916h1.217v3.435h3.117v-3.435h1.317c0 .767 0 .865-.253.865-.178 0-.659 0-1.014-.024.278.568.684 1.408.861 2.1h.887v1.014h-9.73v2.792h6.157c-1.9.643-4.181 1.112-6.487 1.359.659.643 1.521 1.804 1.926 2.545 1.369-.197 2.712-.519 3.979-.89v.865c-.988.099-1.926.173-2.711.223l1.292 3.212c.203-.024.38-.173.431-.396 2.307-.271 5.828-.691 9.199-1.137l-.076-2.273c1.85 1.928 4.409 3.163 8.007 3.806.405-.865 1.268-2.175 1.977-2.842-1.875-.247-3.472-.643-4.84-1.235 1.14-.522 2.356-1.139 3.168-1.584zm-17.207-13.467h-2.256c.127-.197.254-.444.381-.667h1.875v.667zm4.283 15.37v-1.532c.507-.05.71-.247.735-.519l-.406-.05c.735-.371 1.395-.791 2.027-1.235.532 1.111 1.166 2.075 1.926 2.916-1.443.148-2.889.296-4.282.42zm5.676-3.559h4.131c-.836.544-1.799 1.137-2.712 1.581-.532-.468-1.013-.988-1.419-1.581zm2.154-3.137c4.536 0 5.347-.717 5.347-3.114v-9.118c.507-.073.685-.247.71-.519l-4.029-.148v9.711c0 .321-.127.396-.481.421-.354 0-1.597 0-2.584-.05.403.765.885 1.976 1.037 2.817zm-.279-11.343c.507-.099.684-.247.709-.494l-3.979-.222v8.253h3.27v-7.537zm23.437 17.891c-4.358 0-7.12 0-8.539-2.298v-7.759h-6.208v3.311h2.609v4.597c-1.064.741-2.229 1.433-3.269 2.001l1.824 3.954c.304-.1.405-.247.405-.568.912-.692 1.977-1.582 3.016-2.472 2.307 2.62 4.941 2.743 11.226 2.743 2.433 0 4.992-.074 6.893-.173.177-1.062.761-2.792 1.165-3.657-2.559.222-6.132.321-9.122.321zm6.842-.544v-7.857h-12.745v7.932h3.445v-.643h5.676v.568h3.624zm-9.3-3.558v-1.508h5.676v1.508h-5.676zm-8.437-8.897l2.939-2.372c-.861-1.161-2.712-2.669-4.156-3.682l-2.736 2.149c1.444 1.114 3.217 2.769 3.953 3.905zm5.498.841h-2.482v2.989h16.42v-2.989h-6.36v-1.829h5.245v-3.015h-5.245v-1.853c.507-.1.735-.272.76-.544l-4.409-.223v1.161l-3.902-.964c-.506 2.2-1.494 4.621-2.736 6.03.783.322 1.898.792 2.709 1.237zm3.32-5.955c.304 0 .506-.074.607-.223v1.334h-.963c.127-.37.254-.741.356-1.111zm-1.648 4.126h2.255v1.829h-3.37c.405-.544.786-1.162 1.115-1.829z" enable-background="new"/><text transform="matrix(.992 0 0 1 1902.196 703.312)" fill="#fff" font-family="'Gill Sans','Gill Sans MT',Verdana,sans-serif" font-size="42">MANUFACTURING</text><path fill="#fff" d="M358.567 1087.725c.532-.074.735-.247.761-.519l-4.562-.247v8.871h-7.526v3.509h15.584v1.631h-14.646v3.385h14.646v1.755h-16.191v3.509h16.191v.914h3.726v-14.702h-7.982v-8.106zm2.002 6.029l3.294 1.285c.988-1.482 2.256-3.756 2.965-5.56.431 0 .735-.124.861-.347l-4.586-1.531c-.557 1.977-1.596 4.473-2.534 6.153zm-7.703-.321c-.507-1.581-1.698-3.854-2.99-5.56l-3.37 1.26c1.19 1.755 2.382 4.177 2.787 5.758l3.573-1.458zm25.135 5.09c1.191-1.681 2.204-3.534 2.914-5.412.203-.099.38-.247.456-.444l-2.382-1.285-.558.124h-.887v-3.756c.507-.1.734-.272.76-.544l-4.409-.223v4.522h-3.472v3.236h6.057c-1.596 2.867-4.131 5.437-6.893 6.87.558.691 1.419 2.471 1.724 3.435.887-.544 1.748-1.187 2.584-1.902v7.313h3.649v-8.524c.76.766 1.521 1.557 2.027 2.199l2.153-2.941c-.556-.444-2.482-1.852-3.723-2.668zm11.175-.668h4.511v-3.483h-4.511v-6.351c.532-.099.76-.271.785-.544l-4.586-.247v7.142h-4.485v3.483h4.485v8.353h-5.55v3.534h14.495v-3.534h-5.145v-8.353zm18.344-8.796c-6.36 0-11.732 4.473-11.732 10.972 0 4.374 2.053 6.722 5.119 6.722 4.409 0 6.893-4.028 8.007-12.85.381 0 .71-.197.812-.42l-3.801-.815c.507-.074.988-.124 1.52-.124 4.08 0 6.994 2.199 6.994 6.153 0 3.558-2.002 6.227-7.754 7.339 1.064 1.014 1.9 2.249 2.483 3.163 6.512-1.705 9.4-4.794 9.4-10.576-.001-5.61-3.927-9.564-11.048-9.564zm-6.488 13.986c-1.063 0-1.444-1.358-1.444-3.163 0-3.162 2.104-5.955 5.348-6.968-.331 5.288-1.724 10.131-3.904 10.131zm36.489-3.015c4.535 0 5.347-.717 5.347-3.113v-9.118c.507-.074.684-.247.709-.519l-4.029-.148v9.711c0 .321-.126.396-.481.42-.354 0-1.596 0-2.584-.049.404.765.885 1.976 1.038 2.816zm-.28-11.342c.507-.099.685-.247.71-.494l-3.979-.223v8.253h3.269v-7.536zm5.372 16.136l.279.024c.202 0 .405-.049.506-.173l-1.95-1.507h2.407v-2.792h-9.832v-.692c.532-.099.76-.247.785-.544l-2.787-.147c.71-.347.887-.865.887-1.978v-2.693h-4.384v-.617h4.713v-2.348h-4.713v-.667h4.004v-2.225h-4.004v-.815c.481-.099.659-.247.685-.494l-3.802-.197v1.507h-.963l.127-.37c.279.024.481-.05.583-.247l-3.016-.865c-.304 1.261-.836 2.693-1.47 3.583.431.197.988.494 1.495.791h-1.596v2.348h4.839v.617h-3.952v5.017h2.736v-2.916h1.216v3.435h3.117v-3.435h1.317c0 .766 0 .865-.253.865-.178 0-.659 0-1.014-.025.278.568.684 1.409.861 2.101h.887v1.014h-9.73v2.792h6.158c-1.9.643-4.182 1.111-6.487 1.358.659.643 1.521 1.805 1.926 2.546 1.368-.198 2.711-.52 3.979-.89v.865c-.988.099-1.926.172-2.712.222l1.293 3.213c.202-.025.38-.174.431-.396 2.306-.272 5.828-.692 9.198-1.137l-.076-2.273c1.85 1.928 4.409 3.163 8.008 3.806.405-.865 1.267-2.175 1.977-2.842-1.875-.247-3.472-.643-4.84-1.235 1.14-.521 2.357-1.138 3.167-1.584zm-17.206-13.467h-2.255c.127-.198.253-.445.38-.667h1.875v.667zm4.283 15.37v-1.531c.507-.05.709-.247.734-.52l-.405-.049c.734-.371 1.394-.791 2.027-1.236.531 1.112 1.165 2.076 1.926 2.916-1.444.148-2.888.297-4.282.42zm5.676-3.558h4.13c-.836.544-1.799 1.137-2.711 1.581-.532-.47-1.014-.988-1.419-1.581zm23.057-3.731v10.872h3.522v-.691h3.092v.593h3.699v-10.773h-10.313zm6.614 6.746h-3.092v-3.312h3.092v3.312zm-18.473 4.225h3.472v-.767h2.914v.667h3.674v-10.872h-10.06v10.972zm3.472-7.537h2.914v3.336h-2.914v-3.336zm14.418-15.098h-13.658v9.982h13.658v-9.982zm-3.775 6.573h-6.335v-3.138h6.335v3.138z" enable-background="new"/><text transform="matrix(.992 0 0 1 250.102 1071.434)" fill="#fff" font-family="'Gill Sans','Gill Sans MT',Verdana,sans-serif" font-size="42">OUR PRODUCTS</text><text transform="matrix(.992 0 0 1 2024.813 322.434)" fill="#fff" font-family="'Gill Sans','Gill Sans MT',Verdana,sans-serif" font-size="42">AD GALLERY</text><path fill="#fff" d="M2080.928 339.176h16.933v-3.336h-8.454v-2.16c.5-.097.69-.265.715-.528l-4.335-.24v2.929h-8.335v5.88c0 3.457-.144 8.545-2.191 11.953.81.337 2.357 1.393 2.977 1.969 2.287-3.769 2.691-9.961 2.691-13.922v-2.545zm9.193 7.345c.881 1.296 1.762 2.784 2.523 4.248-2.048.097-4.119.217-6.072.288 1.048-2.832 2.143-6.384 2.786-9.457.429-.048.738-.216.834-.479l-4.478-1.057c-.572 3.601-1.715 7.993-2.882 11.161-.929.049-1.786.072-2.548.097l1.429 3.912c.214-.024.429-.168.5-.408 3.048-.191 7.525-.552 11.932-.936.262.672.477 1.319.643 1.872l3.597-1.633c-.834-2.592-3.049-6.24-5.002-9.001l-3.262 1.393zm21.717-7.538h7.073v-3.144h-7.073v-2.16c.5-.097.715-.265.738-.528l-4.334-.24v2.929h-2.334c.19-.528.357-1.032.5-1.536.334.023.596-.097.667-.312l-4.049-1.104c-.619 2.641-1.834 5.593-3.216 7.249.763.36 1.882.937 2.645 1.464h-3.358v3.217h21.862v-3.218h-9.121v-2.617zm-3.596 2.617h-5.168c.523-.744 1.048-1.656 1.523-2.616h3.645v2.616zm-5.93 14.137h3.501v-.792h8.526v.696h3.667v-9.553h-15.694v9.649zm3.5-6.456h8.526v2.448h-8.526v-2.448zm35.484-16.922l-1.524 1.224c.786.744 2.096 2.208 2.644 3.072l1.667-1.248c-.644-.912-1.811-2.208-2.787-3.048zm.667 11.257l-8.145 1.032-.405-3.601 6.287-.792-.31-2.592 1-.696c-.643-.984-1.762-2.305-2.715-3.097l-1.619 1.152c.548.528 1.215 1.272 1.786 1.968l-4.835.648-.333-3.385c.5-.144.69-.384.667-.647l-4.525.191.524 4.297-6.55.84.405 3.408 6.525-.84.429 3.624-8.098 1.057.405 3.384 8.073-1.056.715 6.553 3.738-.408-.762-6.624 8.121-1.032-.378-3.384zm15.598-2.736l-6.383 1.393-.881-3.793c.285-.144.523-.312.523-.6l-3.668.384 1.12 4.656-4.668 1.009.667 2.688 4.549-1.08 2.119 9.457 2.93-.6-2.168-9.505 3.954-.841c-.571 1.057-1.691 2.448-2.596 3.409.786.456 1.762 1.151 2.333 1.68 1.834-1.944 3.191-4.08 4.264-6.528.19-.048.333-.12.452-.288l-2.263-1.608-.284.167zm19.931-6.457h-13.646v3.337h13.646v-3.337zm-.642 6.073h-15.338v3.408h13.79c-.977 3.576-4.882 6.841-10.622 8.209.715.744 1.811 2.04 2.215 2.88 7.192-2.088 10.693-5.593 12.932-12.961.238-.096.43-.264.524-.433l-3.096-1.368-.405.265zm15.549 1.704c0 3.769-1.144 7.681-7.287 10.104.833.601 2.215 1.969 2.786 2.688 6.621-2.856 8.264-7.656 8.264-12.77v-7.44c.5-.072.715-.264.738-.528l-4.501-.239v8.185zm-6.335-6.096c.5-.072.715-.264.738-.528l-4.43-.239v11.904h3.691v-11.137zm13.288 6.048l.191 4.104c.356-.049.69-.217.857-.456h18.838v-3.648h-19.886z" enable-background="new"/><path fill="#fff" d="M248.534 179.905c-.558-.593-2.863-2.965-3.75-3.73v-.025h3.497v-3.409h-3.497v-3.188c1.242-.395 2.356-.815 3.319-1.26.381 0 .583 0 .735-.148l-2.965-2.619c-2.18 1.211-5.701 2.348-9.021 3.015.431.691.938 1.928 1.115 2.669 1.039-.198 2.129-.421 3.192-.668v2.2h-3.953v3.409h3.218c-.963 2.175-2.356 4.597-3.75 6.129.558.938 1.394 2.471 1.723 3.509.988-1.236 1.926-2.916 2.762-4.72v7.932h3.624v-8.772c.608.841 1.217 1.705 1.597 2.372l2.154-2.696zm6.082-1.309c.583 1.557 1.141 3.287 1.597 4.967-1.394.148-2.763.272-4.08.421 1.292-4.844 2.509-11.071 3.142-16.334.482-.074.837-.321.938-.618l-4.967-.914c-.481 5.931-1.647 13.097-2.99 18.236-.811.074-1.571.124-2.255.173l1.292 4.127c.228-.05.456-.198.507-.47 2.356-.297 5.752-.791 9.173-1.285.152.767.254 1.508.304 2.15l3.928-1.162c-.329-2.792-1.646-6.968-3.04-10.255l-3.549.964zm11.553-6.325l3.041-2.249c-.812-1.161-2.56-2.768-3.953-3.854l-2.812 2.026c1.367 1.21 3.039 2.914 3.724 4.077zm6.081.667c.229.544.481 1.187.608 1.754h-3.218v2.422h6.106v.643h-5.093v2.348h5.093v.667h-6.03v2.471h6.03v1.458h3.649v-1.458h6.183v-2.471h-6.183v-.667h5.296v-2.348h-5.296v-.643h6.233v-2.422h-3.522c.304-.469.608-.963.837-1.384.38.025.607-.073.709-.296l-.354-.1h2.559v-2.471h-6.461v-.741h4.967v-2.446h-4.967v-.964c.507-.099.734-.271.76-.543l-4.409-.223v1.729h-4.738v2.446h4.738v.741h-6.436v2.471h3.065l-.126.027zm7.172-.026c-.203.618-.456 1.261-.685 1.779h-2.382c-.076-.494-.329-1.161-.608-1.779h3.675zm-10.82 10.082v-7.907h-6.157v3.312h2.635v4.843c-.988.717-2.027 1.409-2.965 1.952l1.749 3.781c.278-.124.38-.247.38-.568.861-.692 1.85-1.557 2.812-2.472 2.154 2.693 4.814 2.743 10.997 2.743 2.534 0 5.246-.074 7.223-.173.177-1.013.734-2.669 1.14-3.484-2.533.223-6.132.321-9.173.321-4.891 0-7.349 0-8.641-2.348zm40.136-10.402l-.33-3.707c-2.939.494-7.881.84-10.592.914l.126 3.608c2.991-.05 7.806-.371 10.796-.815zm-7.551 8.376c0-1.161.659-2.272 1.748-3.261l-3.725-1.162c-1.292 1.582-2.078 3.163-2.078 4.992 0 4.744 6.006 4.744 9.325 4.744.963 0 1.951-.025 2.889-.074l.127-3.781c-1.09.148-2.509.223-3.751.223-3.37-.001-4.535-.346-4.535-1.681zm-8.617.668c-.075-.47-.075-1.038-.075-1.73 0-3.435.354-7.413 1.343-11.836.481-.05.709-.247.734-.519l-4.89-.618c-.608 3.979-1.115 8.6-1.115 12.01 0 3.311.38 6.598 1.19 8.994l3.852-.544c-.076-.296-.126-.593-.126-.914 0-.37.076-.766.202-1.186.381-1.236 1.344-2.57 2.078-3.93l-1.697-2.842c-.304.743-1.267 2.621-1.496 3.115zm32.561-12.479c-3.016 0-6.867.938-11.073 2.149-1.444.396-2.23.593-3.066.741l1.597 4.547c.278-.124.557-.371.557-.741 3.802-1.705 8.565-2.842 11.581-2.842 2.382 0 4.586 1.211 4.586 3.979 0 3.41-4.079 5.361-12.391 6.004.684.964 1.419 2.867 1.621 3.657 9.579-.79 15.103-3.533 15.103-9.908-.001-5.609-4.005-7.586-8.515-7.586zm17.888 13.911c-1.292 0-2.534-2.026-2.534-6.523 0-2.372.33-5.115.735-7.042.278-.025.583-.223.633-.445l-4.864-.864c-.33 2.446-.481 4.967-.481 7.24 0 .988.025 1.927.075 2.792.203 3.706 2.002 8.945 6.31 8.945 2.434 0 4.207-1.681 5.372-5.856-.887-.494-2.407-1.705-3.142-2.422-.381 1.729-1.318 4.175-2.104 4.175zm8.413-13.368l-2.458 2.792c2.99 1.805 5.018 4.201 5.803 8.698l4.055-1.31c-.812-4.966-3.903-8.302-7.4-10.18zm23.69 3.262c2.027-1.458 3.193-1.68 5.626-1.631l-.076-4.027c-4.764.247-14.798.84-18.042 1.037-.685.05-1.977.074-2.762.074l.38 4.3c.253-.05.608-.223.659-.42 1.85-.223 7.247-.741 10.263-.914-3.396 2.471-5.93 6.227-5.93 9.02 0 4.2 2.914 7.339 10.136 8.104l1.9-3.756c-5.194-.47-7.779-1.878-7.779-4.398 0-2.644 3.319-5.783 5.625-7.389z" enable-background="new"/><text transform="matrix(.992 0 0 1 202.128 150.999)" fill="#fff" font-family="'Gill Sans','Gill Sans MT',Verdana,sans-serif" font-size="42">ABOUT US</text></svg>