<svg xmlns="http://www.w3.org/2000/svg" width="279" height="112" viewBox="0 0 279 112"><path d="M58.839 33.052h-32.037c-4.423 0-8.009 3.589-8.009 8.016v32.064c0 4.427 3.586 8.016 8.009 8.016h32.037c4.424 0 8.009-3.589 8.009-8.016v-32.065c0-4.426-3.585-8.015-8.009-8.015zm187.165.599h-165.95c-4.424 0-8.009 3.589-8.009 8.016v32.064c0 4.427 3.585 8.016 8.009 8.016h165.95c4.423 0 8.009-3.589 8.009-8.016v-32.064c0-4.427-3.586-8.016-8.009-8.016z" opacity=".502" enable-background="new"/><path fill-rule="evenodd" clip-rule="evenodd" fill="#8DC63F" stroke="#fff" stroke-width="2" stroke-miterlimit="10" d="M22.009 24.659h32.037c4.423 0 8.009 3.589 8.009 8.016v32.064c0 4.427-3.586 8.017-8.009 8.017h-32.037c-4.423 0-8.009-3.59-8.009-8.017v-32.064c0-4.427 3.586-8.016 8.009-8.016z" enable-background="new"/><path fill="#A0DE4C" d="M48.44 29.469h-20.824c-4.423 0-8.009 2.871-8.009 6.413v9.619h36.843v-9.619c-.001-3.542-3.587-6.413-8.01-6.413z" enable-background="new"/><path fill="#fff" d="M37.627 37.484l-12.414 11.223h4.806v11.223h4.805v-6.413h6.407v6.413h4.806v-11.223h4.005z" enable-background="new"/><path fill-rule="evenodd" clip-rule="evenodd" fill="#ED1C24" stroke="#fff" stroke-width="2" stroke-miterlimit="10" d="M238.617 72.756h-166.95c-4.423 0-8.009-3.59-8.009-8.017v-32.064c0-4.427 3.586-8.016 8.009-8.016h166.95c4.423 0 8.009 3.589 8.009 8.016v32.064c0 4.427-3.586 8.017-8.009 8.017z" enable-background="new"/><path fill="#F5464D" d="M232.209 30.271h-153.334c-4.424 0-8.009 3.589-8.009 8.016v8.818h169.353v-8.818c0-4.428-3.586-8.016-8.01-8.016z" enable-background="new"/><path fill="#fff" d="M179.515 56.65l1.643.64c.493-.738 1.124-1.87 1.478-2.769.215 0 .367-.062.43-.173l-2.287-.763c-.279.985-.797 2.228-1.264 3.065zm-.998-3.003c.265-.037.366-.123.379-.259l-2.274-.123v4.418h-3.752v1.748h7.77v.812h-7.303v1.686h7.303v.874h-8.073v1.748h8.073v.455h1.857v-7.323h-3.979v-4.036zm-2.843 2.843c-.253-.788-.847-1.92-1.491-2.77l-1.681.628c.594.874 1.188 2.08 1.391 2.868l1.781-.726zm12.532 2.535c.594-.837 1.099-1.76 1.453-2.695.101-.049.189-.123.228-.222l-1.188-.64-.278.062h-.442v-1.871c.253-.049.367-.135.379-.271l-2.198-.11v2.252h-1.731v1.612h3.02c-.795 1.428-2.059 2.707-3.436 3.421.277.345.707 1.231.859 1.711.441-.271.871-.591 1.288-.947v3.643h1.819v-4.246c.379.382.758.775 1.011 1.096l1.074-1.465c-.279-.222-1.239-.923-1.858-1.33zm5.571-.332h2.25v-1.735h-2.25v-3.163c.266-.049.379-.136.393-.271l-2.287-.123v3.557h-2.236v1.735h2.236v4.159h-2.768v1.761h7.228v-1.761h-2.565v-4.159zm9.147-4.381c-3.171 0-5.85 2.228-5.85 5.465 0 2.178 1.023 3.348 2.553 3.348 2.198 0 3.437-2.007 3.992-6.4.189 0 .354-.098.404-.209l-1.895-.406c.252-.037.492-.062.758-.062 2.033 0 3.486 1.096 3.486 3.064 0 1.772-.998 3.102-3.865 3.655.53.505.947 1.12 1.238 1.575 3.246-.849 4.688-2.388 4.688-5.268.001-2.793-1.958-4.762-5.509-4.762zm-3.235 6.965c-.53 0-.72-.677-.72-1.575 0-1.575 1.049-2.966 2.666-3.471-.164 2.634-.859 5.046-1.946 5.046zm18.194-1.501c2.262 0 2.666-.357 2.666-1.551v-4.541c.252-.037.341-.123.354-.259l-2.009-.074v4.837c0 .16-.063.197-.24.209-.177 0-.796 0-1.288-.024.2.382.441.984.517 1.403zm2.539 2.388l.139.012c.102 0 .203-.024.254-.086l-.973-.751h1.199v-1.391h-4.902v-.345c.266-.049.379-.123.393-.271l-1.391-.073c.354-.173.443-.432.443-.985v-1.341h-2.187v-.308h2.351v-1.17h-2.351v-.332h1.996v-1.107h-1.996v-.406c.24-.049.329-.123.341-.246l-1.895-.099v.751h-.48l.062-.185c.14.012.24-.024.291-.123l-1.504-.431c-.15.627-.416 1.341-.732 1.784.215.099.493.246.746.394h-.797v1.17h2.414v.308h-1.971v2.498h1.363v-1.452h.607v1.711h1.554v-1.711h.657c0 .382 0 .431-.127.431l-.505-.013c.139.283.341.702.429 1.047h.443v.504h-4.852v1.391h3.07c-.948.32-2.086.554-3.235.677.329.32.759.898.96 1.269.683-.099 1.353-.259 1.984-.443v.431c-.493.049-.961.086-1.352.11l.644 1.601c.102-.013.19-.087.215-.197 1.149-.136 2.906-.345 4.587-.566l-.038-1.132c.923.96 2.198 1.575 3.992 1.896.202-.431.632-1.083.985-1.416-.935-.123-1.73-.319-2.413-.615.572-.261 1.178-.568 1.582-.79zm-8.578-6.708h-1.125l.189-.332h.936v.332zm2.135 7.655v-.763c.253-.024.354-.123.367-.259l-.203-.024c.367-.185.695-.394 1.012-.615.265.554.58 1.033.959 1.452-.72.074-1.44.148-2.135.209zm2.83-1.772h2.06c-.417.271-.897.566-1.352.788-.266-.234-.506-.492-.708-.788zm.935-7.212c.252-.049.341-.123.354-.246l-1.984-.11v4.11h1.631v-3.754zm13.568-.455h-6.811v4.972h6.811v-4.972zm-1.882 3.273h-3.158v-1.562h3.158v1.562zm-1.125 2.535v5.415h1.757v-.344h1.542v.295h1.844v-5.366h-5.143zm3.299 3.361h-1.542v-1.649h1.542v1.649zm-9.211 2.104h1.73v-.382h1.453v.332h1.832v-5.415h-5.016v5.465zm1.73-3.754h1.453v1.661h-1.453v-1.661z" enable-background="new"/><g fill="#fff"><path d="M85.514 35.333c2.204 0 3.987.669 5.351 2.009 1.364 1.339 2.046 2.897 2.046 4.674 0 1.802-.691 3.365-2.074 4.688-1.383 1.323-3.157 1.985-5.324 1.985-2.191 0-3.975-.659-5.352-1.976s-2.065-2.883-2.065-4.698c0-1.784.684-3.343 2.051-4.679s3.157-2.003 5.367-2.003zm0 10.653c1.222 0 2.207-.365 2.953-1.095.747-.73 1.121-1.688 1.121-2.875 0-1.193-.374-2.153-1.121-2.88-.747-.727-1.731-1.09-2.953-1.09-1.229 0-2.218.363-2.968 1.09-.75.727-1.125 1.687-1.125 2.88 0 1.187.375 2.146 1.125 2.875.75.73 1.74 1.095 2.968 1.095zM104.362 35.5h3.222v7.392c0 1.901-.559 3.343-1.676 4.325-1.117.981-2.713 1.473-4.787 1.473-2.049 0-3.64-.497-4.773-1.492-1.133-.994-1.699-2.423-1.699-4.288v-7.41h3.231v7.485c0 .907.295 1.634.884 2.181s1.362.82 2.319.82c.994 0 1.788-.28 2.384-.839.595-.56.893-1.354.893-2.386v-7.261zM109.907 35.5h5.777c1.253 0 2.271.365 3.055 1.095.784.729 1.176 1.613 1.176 2.65 0 1.435-.741 2.497-2.222 3.186.649.297 1.266 1.098 1.852 2.402.585 1.304 1.149 2.534 1.694 3.689h-3.536c-.211-.429-.579-1.246-1.103-2.451-.525-1.206-.974-1.979-1.347-2.321-.374-.341-.773-.513-1.199-.513h-.926v5.285h-3.222v-13.022zm3.222 2.386v2.964h1.704c.543 0 .974-.129 1.292-.387.318-.258.477-.626.477-1.104 0-.981-.614-1.473-1.842-1.473h-1.631zM127.188 35.5h5.769c1.308 0 2.348.382 3.12 1.146.771.765 1.157 1.668 1.157 2.712 0 1.082-.381 2.007-1.144 2.778s-1.801 1.156-3.115 1.156h-2.565v5.229h-3.222v-13.021zm3.223 2.386v3.02h1.5c1.339 0 2.009-.503 2.009-1.51 0-.565-.179-.958-.537-1.179s-.969-.331-1.833-.331h-1.139zM139.02 35.5h5.777c1.253 0 2.271.365 3.056 1.095.783.729 1.176 1.613 1.176 2.65 0 1.435-.741 2.497-2.223 3.186.649.297 1.267 1.098 1.852 2.402s1.15 2.534 1.695 3.689h-3.536c-.211-.429-.579-1.246-1.104-2.451s-.973-1.979-1.347-2.321c-.373-.341-.772-.513-1.199-.513h-.926v5.285h-3.222v-13.022zm3.221 2.386v2.964h1.704c.543 0 .974-.129 1.291-.387.318-.258.478-.626.478-1.104 0-.981-.614-1.473-1.843-1.473h-1.63zM157.951 35.333c2.204 0 3.987.669 5.352 2.009 1.364 1.339 2.047 2.897 2.047 4.674 0 1.802-.691 3.365-2.074 4.688-1.383 1.323-3.157 1.985-5.324 1.985-2.191 0-3.975-.659-5.352-1.976-1.376-1.317-2.064-2.883-2.064-4.698 0-1.784.684-3.343 2.051-4.679s3.155-2.003 5.364-2.003zm0 10.653c1.223 0 2.207-.365 2.954-1.095.746-.73 1.12-1.688 1.12-2.875 0-1.193-.374-2.153-1.12-2.88-.747-.727-1.731-1.09-2.954-1.09-1.229 0-2.217.363-2.967 1.09s-1.125 1.687-1.125 2.88c0 1.187.375 2.146 1.125 2.875s1.739 1.095 2.967 1.095zM167.189 35.5h5.703c2.204 0 3.946.607 5.227 1.822 1.281 1.215 1.921 2.786 1.921 4.712 0 2.02-.649 3.605-1.948 4.758-1.3 1.153-3.152 1.729-5.561 1.729h-5.342v-13.021zm3.222 2.386v8.249h2.103c1.363 0 2.407-.377 3.129-1.132.723-.755 1.083-1.751 1.083-2.987 0-1.28-.365-2.289-1.097-3.025s-1.782-1.104-3.152-1.104h-2.066zM191.529 35.5h3.222v7.392c0 1.901-.559 3.343-1.676 4.325-1.117.981-2.712 1.473-4.786 1.473-2.05 0-3.641-.497-4.773-1.492-1.132-.994-1.698-2.423-1.698-4.288v-7.41h3.231v7.485c0 .907.294 1.634.884 2.181s1.362.82 2.319.82c.994 0 1.788-.28 2.384-.839.596-.56.894-1.354.894-2.386v-7.261zM209.128 44.551v2.843c-1.617.864-3.312 1.296-5.083 1.296-2.296 0-4.125-.639-5.485-1.916-1.361-1.277-2.042-2.851-2.042-4.721s.718-3.458 2.152-4.763c1.436-1.305 3.311-1.958 5.625-1.958 1.846 0 3.407.382 4.685 1.146v2.899c-1.567-.889-3.052-1.333-4.453-1.333-1.376 0-2.501.371-3.375 1.114-.873.743-1.31 1.688-1.31 2.838 0 1.156.431 2.109 1.291 2.861.861.752 1.965 1.128 3.311 1.128.666 0 1.309-.089 1.926-.266.616-.176 1.536-.565 2.758-1.168zM222.894 35.5v2.386h-4.685v10.635h-3.222v-10.635h-4.686v-2.386h12.593zM233.159 36.339v2.545c-1.716-.777-3.083-1.165-4.102-1.165-.58 0-1.042.098-1.385.293-.342.196-.514.455-.514.778 0 .249.124.485.37.708.247.224.849.513 1.806.867s1.723.684 2.297.988c.573.305 1.069.733 1.485 1.287.417.553.625 1.252.625 2.097 0 1.206-.455 2.166-1.365 2.88-.911.715-2.109 1.072-3.598 1.072-1.604 0-3.16-.419-4.666-1.258v-2.806c.864.584 1.63 1.01 2.296 1.277.667.267 1.374.401 2.12.401 1.266 0 1.898-.4 1.898-1.202 0-.273-.127-.531-.38-.773s-.863-.537-1.829-.885-1.731-.671-2.296-.969-1.052-.724-1.463-1.277c-.41-.553-.615-1.262-.615-2.125 0-1.119.447-2.022 1.343-2.708.895-.687 2.093-1.03 3.592-1.03 1.384-.001 2.844.334 4.381 1.005z"/></g></svg>