<svg xmlns="http://www.w3.org/2000/svg" width="279" height="112" viewBox="0 0 279 112"><path d="M48.839 33.052h-32.037c-4.423 0-8.009 3.589-8.009 8.016v32.064c0 4.427 3.586 8.017 8.009 8.017h32.037c4.424 0 8.009-3.59 8.009-8.017v-32.065c0-4.426-3.585-8.015-8.009-8.015zm172.165.599h-150.95c-4.424 0-8.009 3.589-8.009 8.016v32.063c0 4.428 3.585 8.017 8.009 8.017h150.95c4.423 0 8.01-3.589 8.01-8.017v-32.063c0-4.427-3.587-8.016-8.01-8.016z" opacity=".502" enable-background="new"/><path fill="#8DC63F" stroke="#FCFCFC" stroke-width="2" stroke-miterlimit="10" d="M12.009 24.659h32.037c4.423 0 8.009 3.589 8.009 8.016v32.064c0 4.427-3.586 8.017-8.009 8.017h-32.037c-4.423 0-8.009-3.59-8.009-8.017v-32.064c0-4.427 3.586-8.016 8.009-8.016z" enable-background="new"/><path fill="#A0DE4C" d="M38.44 29.469h-20.824c-4.423 0-8.009 2.871-8.009 6.413v9.619h36.843v-9.619c-.001-3.542-3.587-6.413-8.01-6.413z" enable-background="new"/><path fill="#fff" d="M27.627 37.484l-12.414 11.223h4.806v11.223h4.805v-6.413h6.407v6.413h4.806v-11.223h4.005z" enable-background="new"/><path fill="#ED1C24" stroke="#fff" stroke-width="2" stroke-miterlimit="10" d="M210.617 72.756h-148.95c-4.423 0-8.009-3.59-8.009-8.017v-32.064c0-4.427 3.586-8.016 8.009-8.016h148.95c4.423 0 8.009 3.589 8.009 8.016v32.064c0 4.427-3.586 8.017-8.009 8.017z" enable-background="new"/><path fill="#F5464D" d="M204.209 30.271h-135.334c-4.424 0-8.009 3.589-8.009 8.016v8.818h151.353v-8.818c0-4.428-3.586-8.016-8.01-8.016z" enable-background="new"/><path fill="#fff" d="M138.951 57.095c-.61 0-1.454.126-2.272.341 0-.44.013-.905.026-1.396.792-.088 1.48-.227 2.104-.39l-.221-1.888c-.559.201-1.168.34-1.818.44.026-.516.052-1.019.091-1.51.208-.024.337-.163.337-.302l-2.401-.05v2.038c-.831.024-1.753.037-2.792.037l.039 1.824c1.013 0 1.935-.013 2.753-.05v1.911c-2.311.994-3.168 2.291-3.168 3.334 0 1.674 1.428 2.239 2.519 2.239 1.752 0 2.532-1.082 2.532-2.252v-2.351c.766-.215 1.571-.34 2.22-.34 1.208 0 1.896.604 1.896 1.51 0 .867-.48 1.472-1.376 1.472-.532 0-1.025-.302-1.428-.769-.26.467-.636 1.07-.961 1.474.688.742 1.506 1.069 2.363 1.069 2.337 0 3.402-1.348 3.402-3.246-.001-2.151-1.753-3.145-3.845-3.145zm-4.868 4.969c-.416 0-.662-.228-.662-.668 0-.69.792-1.194 1.376-1.56.013.604.013 1.208.013 1.497 0 .505-.26.731-.727.731zm5.089-6.944c1.039.377 2.181.981 2.908 1.61l1.092-1.637c-.74-.604-1.91-1.208-3.039-1.548l-.961 1.575zm10.736-2.642h-5.167v11.499h1.87v-6.629h3.297v-4.87zm-1.765 3.498h-1.532v-.466h1.532v.466zm0-1.674h-1.532v-.452h1.532v.452zm2.48 3.057h3.389v4.479c0 .227-.092.314-.338.314h-.844v-4.09h-5.154v4.818h1.739v-.691h2.429c.26.49.531 1.297.598 1.787 2.727 0 3.479-.303 3.479-2.113v-9.386h-5.297v4.882h-.001zm.441 3.347h-1.649v-1.158h1.649v1.158zm1.35-6.869h1.598v.465h-1.598v-.465zm0 1.673h1.598v.491h-1.598v-.491zm12.879-1.359l-1.26 1.422c1.532.918 2.57 2.139 2.973 4.428l2.078-.667c-.416-2.527-2-4.227-3.791-5.183zm-4.311 6.806c-.662 0-1.299-1.031-1.299-3.321 0-1.207.168-2.604.377-3.585.143-.013.299-.113.324-.227l-2.492-.44c-.17 1.245-.247 2.528-.247 3.687 0 .504.013.98.038 1.422.104 1.888 1.025 4.555 3.234 4.555 1.245 0 2.153-.855 2.752-2.98-.455-.252-1.234-.868-1.611-1.233-.193.877-.673 2.122-1.076 2.122zm16.034-8.517c.207-.025.338-.139.389-.29l-2.479-.138c-.937 1.51-3.025 3.409-5.246 4.44.39.353.908 1.032 1.156 1.46.661-.34 1.323-.742 1.934-1.158v.919h6.492v-.868c.608.415 1.232.78 1.855 1.096.337-.555.768-1.184 1.232-1.648-1.931-.718-4.087-2.202-5.333-3.813zm-3.311 3.623c.922-.729 1.7-1.51 2.232-2.239.545.729 1.363 1.51 2.299 2.239h-4.531zm-1.883 7.939h1.855v-.439h4.662v.439h1.946v-5.272h-8.465l.002 5.272zm1.856-3.661h4.662v1.623h-4.662v-1.623zm16.801-5.196c-.987 0-2.312.391-3.506 1.183.26-.642.324-.754.908-1.799-.246-.113-.492-.227-.74-.327.053-.516.065-.83.131-1.409.246-.037.324-.15.363-.276l-2.402-.163c0 .062-.014 1.346-.039 2.088-.688.101-1.791.164-2.414.164l.078 1.812c.869-.063 1.869-.164 2.259-.239l-.039.792c-.155.354-.856 1.485-2.649 2.944l.885 1.687c.57-.377 1.376-1.221 1.738-1.773v3.736h1.908c-.025-.643-.025-1.851-.025-3.045v-2.201c.937-.844 2.363-1.409 3.363-1.409 1.285 0 1.883.956 1.883 2.063 0 1.623-1.401 2.264-4.168 2.565.285.478.584 1.194.74 1.698 3.246-.289 5.426-1.497 5.426-4.315-.001-2.392-1.572-3.776-3.7-3.776zm11.293 6.63c-.3 0-.546 0-.728-.014-1.156-.051-1.598-.378-1.688-1.384-.039-.479-.063-1.562-.063-2.667.829-.15 1.883-.314 2.959-.479 0 .591-.025 1.183-.078 1.51-.039.227-.26.39-.492.39-.183 0-.754-.101-1.246-.39-.014.49-.078 1.195-.182 1.548.584.276 1.207.478 1.854.478 2.091 0 2.091-1.772 2.091-3.812.961-.126 1.87-.228 2.506-.276l-.143-1.838c-.637.076-1.532.214-2.391.34-.024-.768-.039-1.686-.078-2.353.209-.088.287-.176.287-.302l-2.338-.063c.078.806.117 2.026.17 3.045-1.014.164-2.025.327-2.908.479.025-.793.013-1.711.052-2.252.272-.076.362-.164.39-.314l-2.453-.177c-.014.391 0 .654.025 3.07-.896.163-1.909.314-2.467.39l.298 1.786c.416-.101 1.44-.289 2.182-.44.026.981.054 1.926.104 2.454.26 2.769 2.207 2.943 4.623 2.943.947 0 2.129-.038 3.129-.163l-.039-1.774c-.987.202-2.402.265-3.376.265z" enable-background="new"/><g enable-background="new" fill="#fff"><path d="M83.499 44.763v2.906c-1.662.883-3.403 1.324-5.223 1.324-2.359 0-4.238-.652-5.637-1.958-1.398-1.305-2.098-2.914-2.098-4.826 0-1.912.737-3.535 2.212-4.869s3.401-2.001 5.779-2.001c1.896 0 3.501.391 4.814 1.172v2.963c-1.611-.908-3.137-1.362-4.576-1.362-1.415 0-2.571.379-3.468 1.138-.897.759-1.346 1.727-1.346 2.901 0 1.182.442 2.157 1.327 2.925.885.769 2.019 1.153 3.401 1.153.685 0 1.345-.09 1.979-.271s1.58-.579 2.836-1.195zM93.185 35.34c2.264 0 4.097.685 5.499 2.053 1.401 1.369 2.103 2.962 2.103 4.778 0 1.842-.71 3.44-2.131 4.793s-3.244 2.029-5.47 2.029c-2.252 0-4.085-.673-5.499-2.02-1.415-1.346-2.122-2.947-2.122-4.802 0-1.823.702-3.417 2.107-4.783s3.242-2.048 5.513-2.048zm0 10.89c1.255 0 2.267-.373 3.035-1.12.768-.746 1.151-1.726 1.151-2.939 0-1.219-.384-2.201-1.151-2.944s-1.779-1.115-3.035-1.115c-1.263 0-2.279.372-3.049 1.115s-1.156 1.725-1.156 2.944c0 1.213.386 2.193 1.156 2.939.77.747 1.786 1.12 3.049 1.12zM116.646 35.511v13.311h-2.796l-7.336-8.528v8.528h-3.311v-13.311h3.036l7.096 8.137v-8.137h3.311zM131.63 35.511v2.439h-4.814v10.872h-3.311v-10.871h-4.814v-2.439h12.939zM139.084 35.511l5.903 13.311h-3.56l-1.096-2.63h-5.952l-.993 2.63h-3.508l5.369-13.311h3.837zm.28 8.357l-2.154-5.174-1.953 5.174h4.107zM158.126 44.763v2.906c-1.661.883-3.403 1.324-5.224 1.324-2.359 0-4.238-.652-5.637-1.958-1.398-1.305-2.098-2.914-2.098-4.826 0-1.912.738-3.535 2.213-4.869s3.4-2.001 5.779-2.001c1.896 0 3.501.391 4.814 1.172v2.963c-1.611-.908-3.137-1.362-4.576-1.362-1.415 0-2.571.379-3.469 1.138-.897.759-1.346 1.727-1.346 2.901 0 1.182.441 2.157 1.326 2.925.886.769 2.02 1.153 3.402 1.153.685 0 1.344-.09 1.979-.271s1.581-.579 2.837-1.195zM172.758 35.511v2.439h-4.813v10.872h-3.311v-10.871h-4.813v-2.439h12.937zM190.045 35.511h3.311v7.556c0 1.944-.574 3.417-1.722 4.421-1.147 1.004-2.788 1.505-4.919 1.505-2.105 0-3.74-.508-4.904-1.524-1.164-1.016-1.746-2.478-1.746-4.383v-7.575h3.32v7.651c0 .927.303 1.67.909 2.229.605.559 1.399.838 2.384.838 1.021 0 1.837-.286 2.449-.857s.918-1.385.918-2.439v-7.422zM205.248 36.369v2.601c-1.764-.794-3.168-1.191-4.215-1.191-.596 0-1.07.1-1.422.3-.352.2-.527.465-.527.796 0 .254.127.495.38.724.254.229.872.524 1.855.886s1.77.699 2.359 1.01c.59.312 1.099.75 1.526 1.315.429.565.643 1.28.643 2.144 0 1.232-.468 2.214-1.403 2.944s-2.167 1.096-3.696 1.096c-1.648 0-3.247-.429-4.795-1.286v-2.868c.889.597 1.675 1.032 2.359 1.306.686.273 1.412.41 2.18.41 1.299 0 1.949-.41 1.949-1.229 0-.279-.13-.543-.391-.791-.26-.248-.886-.549-1.879-.904-.992-.355-1.779-.686-2.359-.991-.58-.305-1.081-.74-1.502-1.306-.422-.565-.633-1.29-.633-2.173 0-1.144.459-2.066 1.379-2.769s2.15-1.053 3.691-1.053c1.422 0 2.922.343 4.501 1.029z"/></g></svg>