<svg xmlns="http://www.w3.org/2000/svg" width="302" height="505" viewBox="0 0 302 505"><path d="M265.198 317.953l.802-6.953-21 17s-1.592 37.613 4 33c11.076-9.138 14-24 14-24l.608-5.273c4.034.324 8.433.418 12.64-.026 13.018-1.375 14.912-2.302 17.583-4.745 2.408-2.205-23.511-7.903-28.633-9.003zm-.198 139.047l-38-16s-.213-.482-2.548.013l-68.585-28.605c17.511-22.188 49.021-53.557 107.151-99.005 9.205-7.196-2.018-9.403-2.018-9.403s-8.882 6.948-22.725 17.921l11.725-9.921-20.322-8.663s-4.42-2.637-1.896 6.796c2.417 9.036 8.647 12.559 9.168 12.84-25.35 20.104-66.231 52.836-100.196 81.462l-77.909-32.495c2.654-.634 4.155.06 4.155.06s-26.646-12.471-39-15c-9.193-1.882-21.43.158-12 8 5.647 4.695 18.152 10.578 27.281 14.544l-.281.456 84.301 35.873c-20.918 17.968-37.482 33.147-43.198 40.699-11.568 15.287-14.93 22.759-14.18 27.047-.585-.384-.923-.619-.923-.619l1.273 1.818c.314.756.786 1.397 1.375 1.965l4.352 6.217 10 4s1.734.217 6-1 32.227-14.637 36-19 8.262-15.5 9-19c.203-.964-.035-.865-.688-.035 1.7-6.939 3.812-16.724 13.975-32.311l80.713 34.346 1.101-.579 15.899 6.579s29.055 6.933 31 1l-10-10zm-180.887 34.485c.789-.073 1.602-.179 2.438-.316-.722.247-1.544.345-2.438.316z" opacity=".102"/><path fill="#ED1C24" d="M261 6s-160.371 125.448-180.897 152.572-15.221 29.649-6.938 33.428c9.659 4.408 27.635.485 52.835-20 17.07-13.877-19.717-34.058 137.019-156.598 9.204-7.195-2.019-9.402-2.019-9.402z"/><path fill="#BF1A20" d="M132.961 121.982l.039.018s.04-.205-.039-.018zm30.243-43.63l-27.017 23.793c-4.421 3.893-2.608 7.749 1.812 3.855l28-24c3.675-2.518 2.373-5.424-2.795-3.648zm-40.204 42.648c1.57 5.88-7 9-7 9l9 4s5.562-4.223 7-9c.63-2.095.872-2.807.961-3.018l-10.961-4.982s.481 2.056 1 4zm52.204-35.648l-27.017 23.793c-2.072 1.825-2.273 4.984-.448 7.057s4.984 2.272 7.058.447l27.016-23.793c2.072-1.825 2.273-4.984.448-7.057s-4.985-2.273-7.057-.447zm70.796-31.352c-.628-8.549-1-24-1-24l-5 3s.999 17.355 2 22l5 9s-.616-4.773-1-10z"/><path fill="#fff" d="M119 176c-6.233 5.834-27.089 14.737-32 17-6.32 2.912-22-8-22-8l7 10 10 4s1.734.217 6-1 32.227-14.637 36-19 8.262-15.5 9-19-4.325 6.946-14 16zm-80-94l188 80 19-10-199-83-8 13zm84 59l-15-6s-16.15 11.094-24 20c-7.85 8.906-12 23-12 23l11 4s14.235-7.224 21-12l19-29zm122-111s-1.592 37.613 4 33c11.076-9.138 14-24 14-24l3-26-21 17z"/><path fill="#ED1C24" d="M237 26l13-11-20.322-8.663s-4.42-2.637-1.896 6.796c2.522 9.432 9.218 12.867 9.218 12.867zm-225 42c9.431 7.842 38 19 38 19s1.283-8.636 6-11c4.408-2.208 7-1 7-1s-26.646-12.471-39-15c-9.193-1.882-21.43.158-12 8zm253 92l-38-16s-.378-.902-6 1l-6 12 29 12s29.055 6.933 31 1l-10-10zm-.682-139.234l-15.984 11.574s14.897 3.734 27.914 2.36c13.018-1.375 14.912-2.302 17.583-4.745 2.671-2.444-29.513-9.189-29.513-9.189z"/><path fill="#6DCFF6" d="M97 160c-6.639 8.804-14 22-14 22s17.658-8.603 24-15c6.343-6.397 16-26 16-26s-19.36 10.196-26 19z"/><path fill="#98D9F3" d="M85 154s-3.402 2.931-8 11c-2.536 4.45-5 13-5 13l11 4s12.392-21.094 14-22l-12-6z"/><path fill="#f00" d="M132 107c-4.418 0-8 2.463-8 5.5s3.582 5.5 8 5.5 8-2.463 8-5.5-3.582-5.5-8-5.5zm124.672-71.699c-2.924-.825-6.266 1.954-7.465 6.206-1.2 4.252.197 8.368 3.121 9.192 2.924.825 6.266-1.953 7.466-6.206 1.199-4.252-.198-8.368-3.122-9.192z"/><path fill="#fff" d="M257.092 37.497c-1.86-.525-3.977 1.204-4.727 3.861-.749 2.658.151 5.238 2.012 5.763 1.86.525 3.976-1.204 4.726-3.861.75-2.658-.151-5.239-2.011-5.763zm-124.092 70.503c-2.762 0-5 1.567-5 3.5s2.238 3.5 5 3.5 5-1.567 5-3.5-2.238-3.5-5-3.5z"/><path fill="#f00" d="M134 109c-1.657 0-3 .896-3 2s1.343 2 3 2 3-.896 3-2-1.343-2-3-2zm123.301-70.405c-1.062-.3-2.289.75-2.739 2.345-.449 1.595.048 3.13 1.11 3.431 1.063.3 2.29-.75 2.74-2.345.449-1.595-.048-3.131-1.111-3.431z"/><path fill="#fff" d="M44 74c-2.739 3.815-4 9-4 9l4 2c.035.301 1.312-6.768 4-10 2.118-2.546 8-3 8-3l-4-2s-5.26.185-8 4zm188 72s-3.05-.654-6 3c-3.109 3.852-4.954 12.191-3 12l3 1c.035.301 1.312-7.768 4-11 2.118-2.547 7-3 7-3l-5-2z"/><path d="M236 25l13-10s-20.938-8.93-22-9 .53 4.761 1 9l8 10zm-113 116l-17 28-22 13s-.674 1.202-2 6c-1.261 4.565 1 7 1 7s2.608 4.502 6 3c9.933-4.396 29.54-12.561 34-18 4.346-5.3 7.764-11.005 10-21 3.248-14.518 13-32 13-32l-7-2-16 16zm142.139 19.625c-8.2-3.609-228.296-95.295-228.296-95.295s-2.285-1.807-13.012-3.96c-11.459-2.302-12 .037-12 .037l262.342 110.189c0 .001 5.863-4.413-9.034-10.971z" opacity=".102"/></svg>