<svg xmlns="http://www.w3.org/2000/svg" width="51" height="128" viewBox="0 0 51 128"><path fill="#FFF200" d="M19.346 109.568v3.197s1.639 2.136 5.841 2.131c4.202-.005 5.309-2.131 5.309-2.131v-3.729l-11.15.532z" enable-background="new"/><path d="M43.762 114.94s-1.935-17.59-2.991-21.221c-1.056-3.631-6.354-3.335-6.354-3.335s-1.788 1.477-2.617 3.335l.748 4.244s2.682.075 4.485.606c1.804.53 5.854 16.731 6.355 16.977l.374-.606z" enable-background="new"/><path fill="#ED1C24" d="M8.727 46.9l9.558 62.766s1.578 2.896 6.372 2.527c4.793-.369 7.434-2.106 7.434-2.106l5.84-64.45-29.204 1.263z" enable-background="new"/><path fill="#FF8085" d="M32.621 50.965c-2.132.183-3.717.532-3.717.532l-1.594 44.22s2.36 1.15 3.717 0l1.594-1.599 3.186-44.219s-1.055.882-3.186 1.066z" enable-background="new"/><path fill="#fff" d="M24.656 90.922c-8.553.118-9.558-2.664-9.558-2.664v17.581s4.533 3.358 10.619 3.197c6.087-.162 8.495-3.197 8.495-3.197v-19.179c.001 0-.422 4.136-9.556 4.262z" enable-background="new"/><path fill="#B4B4B4" d="M22.798 98.637c.733 0 1.327-.535 1.327-1.193 0-.659-.594-1.193-1.327-1.193s-1.328.534-1.328 1.193c0 .658.594 1.193 1.328 1.193zm0 3.75c-.733 0-1.328.534-1.328 1.193s.594 1.193 1.328 1.193c.733 0 1.327-.534 1.327-1.193s-.594-1.193-1.327-1.193zm0-3.069c-.733 0-1.328.534-1.328 1.193s.594 1.193 1.328 1.193c.733 0 1.327-.534 1.327-1.193s-.594-1.193-1.327-1.193z" enable-background="new"/><path fill="#4B4B4B" d="M22.647 29.654c-15.424.449-13.706 17.432-13.706 17.432s-3.283 3.694 15.814 3.32c14.476-.284 13.706-4.565 13.706-4.565s1.916-16.703-15.814-16.187z" enable-background="new"/><path fill="#4B4B4B" d="M22.178 3.549l-1.77 27.171s.357 1.646 2.655 1.598c2.298-.048 2.655-1.198 2.655-1.198l-3.54-27.571z" enable-background="new"/><path fill="#818181" d="M33.441 34.786c-2.217-2.766-4.621-4.205-5.367-3.214-.748.99.445 4.035 2.663 6.801s4.621 4.205 5.368 3.215c.747-.99-.445-4.035-2.664-6.802z" enable-background="new"/><ellipse fill="#B4B4B4" cx="15.895" cy="43.239" rx="3.451" ry="3.463" enable-background="new"/><ellipse fill="#9E0B0F" cx="24.656" cy="65.349" rx="9.026" ry="9.057" enable-background="new"/><ellipse fill="#fff" cx="25.697" cy="64.304" rx="5.901" ry="5.922" enable-background="new"/><circle fill="#9E0B0F" cx="26.531" cy="63.488" r="4.266" enable-background="new"/><path fill="#4B4B4B" d="M19.579 97.774c-.972-2.178-3.068-3.909-3.068-3.909s-6.213-.348-7.452 3.909c-1.239 4.258-3.507 24.88-3.507 24.88s-.148.998.438.711c.586-.288 5.336-19.281 7.452-19.904 2.115-.622 5.26-.71 5.26-.71s1.849-2.798.877-4.977z" enable-background="new"/><path fill="#3D3D3D" d="M37.287 98.022c-2.1-4.525-6.26-4.437-6.26-4.437s-1.968 1.475-2.654 4.262c-.688 2.787 1.929 4.993 1.929 4.993s.738-.91 4.191 0c3.452.909 6.286 19.71 6.286 19.71h1.398c.001.001-2.79-20.002-4.89-24.528z" enable-background="new"/><path fill="#818181" d="M16.464 95.075s-3.464-.31-4.778 1.365c-1.315 1.676-1.707 6.147-1.707 6.147s1.273-4.432 2.731-4.781c1.457-.35 5.461-.683 5.461-.683l-1.707-2.048z" enable-background="new"/><path fill="#818181" d="M35.289 96.677c-.936-.486-2.07-1.261-2.07-1.261s-.994.81-1.034 1.261c-.039.452 0 .841 0 .841s1.728-.324 2.69.631l2.068 2.732s-.719-3.717-1.654-4.204z" enable-background="new"/></svg>