<svg xmlns="http://www.w3.org/2000/svg" width="128" height="51" viewBox="0 0 128 51"><path fill="#FFF200" d="M112.766 20.504h-3.73l.533 11.149h3.197s2.135-1.639 2.131-5.84c-.005-4.202-2.131-5.309-2.131-5.309z" enable-background="new"/><path d="M114.94 7.238s-17.59 1.935-21.221 2.991c-3.631 1.056-3.335 6.355-3.335 6.355s1.477 1.787 3.335 2.616l4.244-.747s.075-2.683.606-4.486 16.73-5.854 16.977-6.355c.246-.5-.606-.374-.606-.374z" enable-background="new"/><path fill="#ED1C24" d="M112.193 26.344c-.369-4.793-2.106-7.434-2.106-7.434l-64.45-5.84 1.264 29.202 62.765-9.557c0 .001 2.896-1.578 2.527-6.371z" enable-background="new"/><path fill="#FF8085" d="M95.717 19.973c-1.15-1.356-1.598-1.593-1.598-1.593l-44.22-3.187s.882 1.055 1.065 3.187c.184 2.131.533 3.717.533 3.717l44.219 1.593c.001-.001 1.151-2.361.001-3.717z" enable-background="new"/><path fill="#fff" d="M105.84 16.787h-19.18s4.137.423 4.262 9.557c.117 8.553-2.664 9.558-2.664 9.558h17.582s3.357-4.532 3.195-10.619c-.161-6.088-3.195-8.496-3.195-8.496z" enable-background="new"/><path fill="#B4B4B4" d="M97.443 26.875c-.66 0-1.193.595-1.193 1.327 0 .733.533 1.328 1.193 1.328.658 0 1.193-.595 1.193-1.328.001-.732-.534-1.327-1.193-1.327zm3.069 0c-.659 0-1.193.595-1.193 1.327 0 .733.534 1.328 1.193 1.328s1.193-.595 1.193-1.328c0-.732-.534-1.327-1.193-1.327zm3.068 0c-.658 0-1.193.595-1.193 1.327 0 .733.535 1.328 1.193 1.328.659 0 1.193-.595 1.193-1.328 0-.732-.534-1.327-1.193-1.327z" enable-background="new"/><path fill="#4B4B4B" d="M50.406 26.244c-.284-14.476-4.565-13.705-4.565-13.705s-16.702-1.916-16.187 15.814c.449 15.424 17.432 13.705 17.432 13.705s3.695 3.284 3.32-15.814z" enable-background="new"/><path fill="#4B4B4B" d="M31.119 25.282l-27.57 3.54 27.171 1.77s1.646-.357 1.598-2.655c-.048-2.297-1.199-2.655-1.199-2.655z" enable-background="new"/><path fill="#818181" d="M41.588 14.895c-.99-.747-4.035.445-6.801 2.664-2.766 2.218-4.205 4.621-3.215 5.367.991.747 4.036-.445 6.801-2.663 2.766-2.218 4.206-4.621 3.215-5.368z" enable-background="new"/><ellipse fill="#B4B4B4" cx="43.239" cy="35.105" rx="3.463" ry="3.452" enable-background="new"/><ellipse fill="#9E0B0F" cx="65.35" cy="26.344" rx="9.058" ry="9.026" enable-background="new"/><ellipse fill="#fff" cx="64.305" cy="25.302" rx="5.922" ry="5.902" enable-background="new"/><circle fill="#9E0B0F" cx="63.488" cy="24.469" r="4.266" enable-background="new"/><path fill="#4B4B4B" d="M123.365 45.01c-.288-.587-19.281-5.337-19.904-7.452-.622-2.115-.711-5.261-.711-5.261s-2.797-1.849-4.975-.876c-2.18.972-3.91 3.068-3.91 3.068s-.348 6.214 3.91 7.452c4.256 1.238 24.879 3.507 24.879 3.507s.998.149.711-.438z" enable-background="new"/><path fill="#3D3D3D" d="M98.022 13.713c-4.526 2.1-4.437 6.26-4.437 6.26s1.475 1.968 4.262 2.654c2.787.688 4.992-1.929 4.992-1.929s-.909-.738 0-4.191c.91-3.452 19.711-6.287 19.711-6.287v-1.397c.001 0-20.002 2.79-24.528 4.89z" enable-background="new"/><path fill="#818181" d="M97.807 38.291c-.35-1.458-.683-5.462-.683-5.462l-2.05 1.707s-.309 3.464 1.367 4.778c1.675 1.314 6.146 1.707 6.146 1.707s-4.431-1.273-4.78-2.73z" enable-background="new"/><path fill="#818181" d="M100.881 14.056s-3.717.721-4.203 1.655c-.488.936-1.262 2.069-1.262 2.069s.81.996 1.262 1.035c.451.039.84 0 .84 0s-.324-1.728.631-2.69l2.732-2.069z" enable-background="new"/></svg>