<svg xmlns="http://www.w3.org/2000/svg" width="358" height="378" viewBox="0 0 358 378"><g><path fill="#739FB0" d="M355 199l-21.242-.121-17.758-8.879h-294l-6 7 115.635.728-127.635-.728s17.79 16.408 28.365 15.327c1.16-.118 2.479-.236 3.89-.354 2.87 2.787 14.431 13.417 25.02 14.629 3.24.371 19.941.545 42.724.601v11.286l-.162-8.444s-12.755 12.477-33.729 12.08c-20.974-.396-36.94-7.248-36.94-7.248s38.779 51.106 37.744 66.036c-1.035 14.929-12.046 31.406-12.046 31.406s-7.836-1.057 21.683 17.717c7.017 4.463 18.615 5.391 23.451 5.584v17.38h4v-17.465c7.079-10.392 33.822-50.433 46.432-80.394 8.466-20.118 15.477-33.137 19.879-40.536 1.713 2.418 2.213 5.868 1.927 9.924l-.123.011.12.027c-.69 9.641-5.818 22.705-9.757 33.574-5.785 15.962-40.153 70.062-40.153 70.062s3.015 2.961 33.729 13.69c4.73 1.653 8.761 2.812 12.202 3.597-3.821 6.457-5.777 9.51-5.777 9.51s3.306-3.356 8.455-8.955c10.158 1.905 14.354.147 16.067-1.457v8.412h4v-30.032c16.654-20.324 35.127-46.296 38.935-65.41 5.665-28.438 6.89-44.921 7.154-50.739 8.141-.046 15.235-.088 20.911-.123v4.414c-5.387-1.011-21.832-3.673-16.02 2.74 2.198 2.426 2.849 6.177 2.533 10.673l-.124.018.116.076c-.704 9.636-5.82 22.674-9.753 33.525-5.784 15.962-40.153 70.062-40.153 70.062s3.015 2.961 33.729 13.69c1.97.688 3.815 1.289 5.551 1.815l-1.535 2.433s.874-.771 2.411-2.177c13.914 4.099 20.319 3.136 23.245 1.53v7.505h4v-36.361c16.112-17.729 33.333-40.135 36.195-57.471 4.978-30.158 2.358-50.69 1.73-54.796.241 2.505-.37 10.465-16.989 13.726-7.45 1.462-14.738 2.733-20.937 3.753v-15.181c6.646-.042 10.497-.068 10.497-.068s6.534.005 9.263-5.188c6.542.889 12.599 1.825 18.141 2.788l.025.171-.019-.169c15.311 2.66 51.093-25.204 51.093-25.204zm-301.534 11.944c11.431-.481 26.233-.788 44.531-.687-17.873.223-33.417.482-44.531.687zm54.534 133.317v-98.48c1.671 11.523 3.594 27.63 3.869 42.246.321 17.078-2.102 41.212-3.869 56.234zm31.977-110.995c-15.75-.573-27.154-2.073-31.977-2.806v-3.249c20.792.037 46.026-.016 70.568-.103-3.629 1.326-19.937 6.836-38.591 6.158zm51.023-1.909c-1.665-.337-8.733-1.701-13.645-1.658.876-1.342 1.474-2.191 1.764-2.594 3.988-.014 7.953-.029 11.881-.045v4.297zm4 84.548v-59.338c2.462 2.453 5.029 5.39 7.615 8.91 5.644 7.687.005 29.593-7.615 50.428zm14.04-72.975c-4.656.027-9.52.188-14.04.396v-16.282c15.912-.066 30.996-.143 43.772-.213-5.168 5.003-17.891 16.027-29.732 16.099zm68.26 33.017c1.646 10.347-5.742 29.63-11.3 41.536v-58.812c5.509 5.392 10.397 11.604 11.3 17.276z" opacity=".502"/><path fill="#D2F0FC" d="M245.98 149.15c-6.914 7.629 17.667 2.416 17.667 2.416l.804-131.266s-1.409-9.925-32.123.806l-33.728 13.691s34.369 54.101 40.153 70.062c5.784 15.961 14.142 36.663 7.227 44.291zm-72.275 0c-6.914 7.629 17.667 2.416 17.667 2.416l.803-131.266s-1.408-9.925-32.122.806l-33.729 13.69s34.368 54.101 40.153 70.062c5.785 15.962 14.142 36.664 7.228 44.292zm102.792 7.248s-203.021-1.396-215.221 0l-25.698 15.301s251.358 5.653 251.358-4.832c.001-10.484-10.439-10.469-10.439-10.469z"/><path fill="#94C6DA" d="M85 156s1.094-.93-10 0c-11.093.93-13 13-13 13h20s-2.598-.809 0-6l13-7h-10zm21 0c-11.094.93-13 13-13 13h20s-2.597-.809 0-6c2.598-5.191 13-7 13-7h-10s1.094-.93-10 0zm79-21c-6.079 14.344-8 17-8 17h14l-1-134s-11.57-4.832-21-1l-15 6s-.629 32.321 18 50c12.637 11.992 19.08 47.656 13 62zm-45 21c-11.094.93-13 13-13 13h20s-2.598-.809 0-6l13-7h-10s1.094-.93-10 0zm35 0c-11.094.93-13 12-13 12h19.93c-.396-.016-2.269-.326.07-5 2.598-5.191 13-7 13-7h-10s1.094-.93-10 0zm73-4h14l-1-134s-11.57-4.832-21-1l-15 6s57.438 49.806 25 64c-15.96 6.983 12.079 33.656 6 48l-8 17z"/><path fill="#739FB0" d="M106 157h3v-150h-3v150zm87 0h3v-150h-3v150zm71-150v150h3v-150h-3z"/><path fill="#fff" d="M191 53.666v73.426c-8.48 7.098-14.886 8.368-14.886 8.368s6.431.554 14.886 1.012v20.528h4v-20.326c4.521.209 9.384.369 14.04.397 15.317.091 32.122 18.521 32.122 18.521s.01-16.82-7.228-53.15c-3.808-19.114-22.28-45.086-38.935-65.41v-30.032h-4v25.214c-13.319-15.843-24.521-27.214-24.521-27.214s3.266 5.093 9.637 16.106c2.502 4.329 8.81 17.395 14.885 32.56zm4 10.429c7.62 20.835 13.259 42.741 7.615 50.428-2.586 3.521-5.153 6.457-7.615 8.911v-59.339zm-124.891 73.781c20.974-.396 33.729 12.08 33.729 12.08l.162-8.444v15.488h4v-7.46c4.822-.732 16.227-2.232 31.977-2.806 21.184-.771 39.35 6.442 39.35 6.442s-10.289-13.611-24.895-48.318c-12.61-29.961-39.353-70.002-46.432-80.393v-17.465h-4v17.381c-4.835.193-16.434 1.121-23.451 5.584-29.519 18.773-21.682 17.717-21.682 17.717s11.011 16.478 12.046 31.407l-37.744 66.035s15.967-6.852 36.94-7.248zm37.891-102.137c1.767 15.022 4.19 39.155 3.869 56.234-.274 14.616-2.197 30.723-3.869 42.246v-98.48zm194.195 65.093c-2.862-17.336-20.083-39.741-36.195-57.471v-36.361h-4v32.028c-13.731-14.651-25.656-25.17-25.656-25.17s21.012 33.291 24.895 39.46c.221.351.479.788.762 1.287v70.424c-6.945 6.093-13.61 10.431-13.61 10.431s5.463.745 13.61 2.043v19.497h4v-18.85c6.198 1.019 13.486 2.291 20.937 3.752 16.619 3.262 17.23 11.221 16.989 13.726.627-4.105 3.246-24.638-1.732-54.796zm-24.895 3.221c-.902 5.672-5.791 11.884-11.3 17.275v-58.811c5.558 11.906 12.945 31.19 11.3 41.536zm26.607 51.744l.019-.169-.025.171c-13.577 2.359-30.075 4.58-49.89 6.236-126.034 10.54-198.582 7.993-221.645 5.638-10.575-1.081-28.366 15.327-28.366 15.327l351-2s-35.782-27.864-51.093-25.203z"/><path fill="#739FB0" d="M126.237 177h14.526c2.34 0 4.236-.896 4.236-2s-1.896-2-4.236-2h-14.526c-2.34 0-4.237.896-4.237 2s1.897 2 4.237 2zm-33 0h14.526c2.34 0 4.237-.896 4.237-2s-1.897-2-4.237-2h-14.526c-2.34 0-4.237.896-4.237 2s1.897 2 4.237 2zm213.263-3c9.113 0 16.5-2.687 16.5-6s-7.387-6-16.5-6c-9.112 0-16.5 2.687-16.5 6s7.388 6 16.5 6zm-290.5 9l6 7h294l18-9-318 2zm44.237-6h14.526c2.34 0 4.237-.896 4.237-2s-1.896-2-4.237-2h-14.526c-2.34 0-4.237.896-4.237 2s1.897 2 4.237 2z"/><path fill="#ED1C24" d="M125.473 64.086c-4.742-1-6.784 7.106-4.56 18.106 2.224 11 7.871 20.728 12.612 21.729 4.742 1 6.784-7.106 4.56-18.106-2.224-11.001-7.87-20.728-12.612-21.729zm92 12.998c-4.742-.976-6.783 6.929-4.56 17.653s7.871 20.21 12.612 21.186c4.742.975 6.784-6.929 4.561-17.653-2.225-10.726-7.871-20.21-12.613-21.186zm82.612 21.186c-2.224-10.726-7.87-20.21-12.612-21.186s-6.783 6.929-4.56 17.653 7.871 20.21 12.612 21.186c4.743.974 6.785-6.929 4.56-17.653z"/><path fill="#fff" d="M220.297 82.442c-2.767-.568-4.025 3.712-2.812 9.562 1.213 5.85 4.438 11.054 7.205 11.622 2.767.569 4.025-3.712 2.812-9.562-1.213-5.849-4.439-11.052-7.205-11.622zm-92-12.86c-2.767-.583-4.025 3.808-2.812 9.808s4.439 11.337 7.205 11.92c2.767.584 4.025-3.807 2.812-9.807s-4.44-11.337-7.205-11.921zm169.205 24.483c-1.213-5.851-4.439-11.054-7.205-11.623-2.767-.568-4.025 3.712-2.812 9.562 1.213 5.85 4.438 11.054 7.205 11.622 2.765.57 4.025-3.711 2.812-9.561z"/><path fill="#ED1C24" d="M129.596 71.813c-1.581-.333-2.316 2.099-1.643 5.433.674 3.333 2.502 6.306 4.082 6.639 1.581.334 2.316-2.099 1.643-5.432s-2.502-6.306-4.082-6.64zm91.999 12.805c-1.58-.325-2.315 2.046-1.642 5.296s2.502 6.148 4.082 6.474c1.581.325 2.316-2.046 1.643-5.296s-2.502-6.149-4.083-6.474zm74.083 6.474c-.674-3.25-2.502-6.148-4.083-6.474-1.58-.325-2.315 2.046-1.642 5.296s2.502 6.148 4.082 6.474c1.581.325 2.317-2.046 1.643-5.296z"/></g><path fill="#E6E6E6" d="M87 29c-8.596 4.16-15 8-15 8s31.382 35.936 23 41c-21.58 13.037 6.234 28.051-11 36l-26 23s17.312-4.482 31 2l14 11v-125s-7.404-.16-16 4z" enable-background="new"/><path fill="#666" d="M17 183.8l3 4.2 306-2.8 6-4.2z" enable-background="new"/></svg>