<svg xmlns="http://www.w3.org/2000/svg" width="346" height="316" viewBox="0 0 346 316"><path d="M175 237c-79.529 0-144 5.828-144 13.019 0 2.538 8.064 4.905 21.96 6.907-1.912 1.277-2.96 2.64-2.96 4.056 0 7.19 26.639 13.018 59.5 13.018 18.969 0 35.853-1.944 46.746-4.97 6.602.553 13.763.858 21.254.858 11.811 0 22.812-.754 32.066-2.053 5.25 2.125 12.248 3.423 19.934 3.423 9.757 0 18.398-2.092 23.766-5.313 2.615.335 5.375.518 8.234.518 12.708 0 23.537-3.546 27.688-8.519 18.684-2.194 29.812-4.941 29.812-7.926 0-7.19-64.471-13.018-144-13.018z" opacity=".302" enable-background="new"/><ellipse fill="#fff" cx="205" cy="203" rx="48" ry="46" enable-background="new"/><ellipse fill="#fff" cx="272" cy="115.5" rx="42" ry="38.5" enable-background="new"/><ellipse fill="#fff" cx="175.5" cy="80" rx="23.5" ry="25" enable-background="new"/><path fill="#F4F2F2" d="M321.401 165.874c1.672-3.528 2.599-7.361 2.599-11.374 0-17.18-16.812-31.138-37.708-31.483 1.721-2.551 2.708-5.442 2.708-8.517 0-7.06-5.133-13.191-12.676-16.31 1.719-4.472 2.676-9.234 2.676-14.19 0-25.405-24.4-46-54.5-46-29.951 0-54.25 20.395-54.489 45.627-8.083.895-15.727 2.737-22.666 5.399-5.756-19.574-25.888-34.026-49.845-34.026-28.443 0-51.5 20.371-51.5 45.5s23.057 45.5 51.5 45.5c4.902 0 9.637-.618 14.129-1.748l.294.873c-2.19 2.507-4.165 5.256-5.896 8.205-8.014-4.03-17.224-6.33-27.027-6.33-30.928 0-56 22.834-56 51 0 28.167 25.072 51 56 51 17.272 0 32.712-7.125 42.984-18.319 7.066 4.646 15.264 7.319 24.016 7.319 13.352 0 25.425-6.193 34.127-16.184 8.887 6.855 21.883 11.184 36.373 11.184 1.451 0 2.885-.052 4.305-.137 11.549 10.559 27.746 17.137 45.695 17.137 35.07 0 63.5-25.072 63.5-56 0-10.256-3.141-19.858-8.599-28.126zm-69.78-26.312l-.165.033c.341-2 .544-4.029.544-6.095 0-1.197-.08-2.381-.199-3.557 1.967 1.001 4.138 1.78 6.45 2.305-2.623 2.15-4.852 4.618-6.63 7.314z" enable-background="new"/><circle fill="#fff" cx="117" cy="105" r="44" enable-background="new"/><ellipse fill="#fff" cx="132.5" cy="168.5" rx="51.5" ry="39.5" enable-background="new"/><circle fill="#fff" cx="42" cy="116" r="20" enable-background="new"/><path fill="#fff" d="M304.5 64c-5.247 0-9.5 4.253-9.5 9.5s4.253 9.5 9.5 9.5 9.5-4.253 9.5-9.5-4.253-9.5-9.5-9.5zm-48.5 26c-7.18 0-13 5.82-13 13s5.82 13 13 13 13-5.82 13-13-5.82-13-13-13z" enable-background="new"/><circle fill="#fff" cx="285" cy="152" r="18" enable-background="new"/><ellipse fill="#fff" cx="211" cy="152" rx="48" ry="46" enable-background="new"/><circle fill="#fff" cx="99" cy="212" r="39" enable-background="new"/><ellipse fill="#fff" cx="169.5" cy="199" rx="26.5" ry="22" enable-background="new"/><ellipse fill="#fff" cx="258.5" cy="211.5" rx="43.5" ry="39.5" enable-background="new"/></svg>