<svg xmlns="http://www.w3.org/2000/svg" width="150" height="171" viewBox="0 0 150 171"><path d="M102.279 67.535c-9.375-25.267-37.348-38.109-62.479-28.682-25.131 9.427-37.903 37.553-28.527 62.821 8.604 23.188 32.866 35.895 56.223 30.551l13.875 16.123.324-21.837c19.758-11.847 28.912-36.532 20.584-58.976z" opacity=".302" enable-background="new"/><g enable-background="new"><path fill="#ED1C24" d="M82.594 7.167c-32.701 0-59.21 26.564-59.21 59.333 0 30.068 22.327 54.896 51.271 58.786l9.015 24.278 9.627-24.717c27.588-5.052 48.508-29.244 48.508-58.349 0-32.767-26.51-59.331-59.211-59.331z"/><path stroke="#fff" stroke-width="3" stroke-miterlimit="10" d="M82.594 7.167c-32.701 0-59.21 26.564-59.21 59.333 0 30.068 22.327 54.896 51.271 58.786l9.015 24.278 9.627-24.717c27.588-5.052 48.508-29.244 48.508-58.349 0-32.767-26.51-59.331-59.211-59.331z" fill="none"/></g><circle fill="#9E0B0F" cx="85.271" cy="65.5" r="46.5" enable-background="new"/><path fill="#8DC63F" d="M131.771 41.612c0-3.217-9.345-13.814-9.345-13.814l.076-1.553h.81v-2.018c.153-.306.242-.647.242-1.01v-4.89c0-1.286-1.082-2.328-2.416-2.328h-8.218c-1.334 0-2.416 1.042-2.416 2.328v4.89c0 .362.088.704.24 1.01v2.018h1.086l.006 1.553s-9.065 10.598-9.065 13.814c0 0 2.176 22.068 2.176 35.856 0 6.049-1.209 10.707-1.209 10.707 0 3.218 3.1 5.824 6.922 5.824h14.189c3.821 0 6.922-2.606 6.922-5.824 0 0-1.449-4.331-1.449-10.475 0-13.738 1.449-36.088 1.449-36.088z" enable-background="new"/><g><path fill="none" d="M41.004 49.232h90.076v87.741h-90.076z"/><g enable-background="new" fill="#fff"><path d="M55.36 68.312c-.576.264-1.776.504-3.097.504-4.032 0-6.601-2.521-6.601-6.841 0-4.08 2.641-7.152 7.177-7.152 1.056 0 2.064.216 2.665.432l-.6 3.192c-.432-.144-1.008-.312-1.848-.312-1.92 0-3.145 1.487-3.121 3.672 0 2.353 1.344 3.672 3.145 3.672.744 0 1.368-.119 1.896-.336l.384 3.169zM69.352 61.735c0 5.257-3.384 7.104-6.336 7.104-3.744 0-6.312-2.592-6.312-6.937 0-4.536 2.736-7.104 6.457-7.104 3.863.001 6.191 2.882 6.191 6.937zm-6.289-3.864c-1.584 0-2.088 2.064-2.088 3.937 0 2.256.648 3.96 2.088 3.96 1.368 0 2.016-1.8 2.016-3.96.001-1.993-.575-3.937-2.016-3.937zM90.592 68.576h-4.152v-7.537c0-1.704-.383-2.808-1.535-2.808-.984 0-1.681.84-1.681 2.208v8.137h-4.152v-7.873c0-1.319-.336-2.472-1.512-2.472-.624 0-1.704.504-1.704 2.232v8.112h-4.153v-9.192c0-1.608-.048-3.049-.096-4.32h3.6l.192 1.68h.072c.625-.84 1.8-1.944 3.72-1.944 1.656 0 2.856.792 3.385 2.064h.047c.529-.769 1.753-2.064 3.841-2.064 2.641 0 4.128 1.969 4.128 5.568v8.209zM95.535 53.551c-1.271 0-2.16-.912-2.16-2.136 0-1.272.912-2.16 2.16-2.16 1.271 0 2.16.888 2.16 2.16 0 1.272-.935 2.136-2.16 2.136zm2.112 15.025h-4.225v-13.513h4.225v13.513zM112.432 68.576h-4.225v-7.849c0-1.416-.432-2.448-1.632-2.448-.888 0-1.824.648-1.824 2.376v7.921h-4.225v-9.192c0-1.608-.048-3.049-.096-4.32h3.624l.217 1.704h.071c.601-.912 1.872-1.969 3.745-1.969 2.832 0 4.344 2.04 4.344 5.545v8.232zM127.168 55.063c-.049 1.056-.121 2.328-.121 4.176v7.585c0 3.384-.791 7.393-7.008 7.393-1.584 0-3.145-.288-4.272-.84l.768-3.217c.792.408 2.017.792 3.36.792 1.848 0 2.977-1.104 2.977-3.24v-.744h-.049c-.672.96-1.799 1.488-3.047 1.488-3.241 0-5.09-3-5.09-6.553 0-4.344 2.449-7.104 5.473-7.104 1.44 0 2.496.648 3.121 1.729h.048l.192-1.464h3.648zm-4.346 5.304c0-1.512-.815-2.231-1.703-2.231-1.32 0-2.185 1.487-2.185 3.696 0 2.111.815 3.456 2.136 3.456.912 0 1.752-.601 1.752-2.305v-2.616z"/></g><g enable-background="new" fill="#fff"><path d="M68.176 76.472c-.576-.312-1.536-.673-2.497-.673-.936 0-1.416.408-1.416 1.009 0 .552.408.888 1.896 1.512 2.352.984 3.24 2.376 3.264 4.104 0 2.784-2.112 4.393-5.521 4.393-1.512 0-3.024-.36-3.888-.889l.72-3.023c.672.407 2.064.888 3.145.888 1.056 0 1.56-.36 1.56-1.008s-.384-.984-1.752-1.536c-2.592-1.08-3.384-2.593-3.384-3.984 0-2.545 2.017-4.465 5.185-4.465 1.392 0 2.592.336 3.408.721l-.72 2.951zM83.512 79.735c0 5.257-3.384 7.104-6.336 7.104-3.744 0-6.312-2.592-6.312-6.937 0-4.536 2.736-7.104 6.457-7.104 3.863.001 6.191 2.882 6.191 6.937zm-6.288-3.864c-1.584 0-2.088 2.064-2.088 3.937 0 2.256.647 3.96 2.088 3.96 1.368 0 2.017-1.8 2.017-3.96-.001-1.993-.577-3.937-2.017-3.937zM97.816 79.735c0 5.257-3.385 7.104-6.337 7.104-3.744 0-6.312-2.592-6.312-6.937 0-4.536 2.736-7.104 6.456-7.104 3.865.001 6.193 2.882 6.193 6.937zm-6.289-3.864c-1.584 0-2.088 2.064-2.088 3.937 0 2.256.648 3.96 2.088 3.96 1.368 0 2.016-1.8 2.016-3.96 0-1.993-.575-3.937-2.016-3.937zM112.072 86.576h-4.225v-7.849c0-1.416-.432-2.448-1.632-2.448-.888 0-1.824.648-1.824 2.376v7.921h-4.225v-9.192c0-1.608-.048-3.049-.096-4.32h3.624l.217 1.704h.071c.601-.912 1.872-1.969 3.745-1.969 2.832 0 4.344 2.04 4.344 5.545v8.232z"/></g></g></svg>