<svg xmlns="http://www.w3.org/2000/svg" width="448" height="133" viewBox="0 0 448 133"><path fill="#6B9CB5" d="M49 105.224h38.262c.618 1.17 2.28 2.009 4.238 2.009h7c1.958 0 3.62-.839 4.238-2.009h25.815c1.168 4.388 4.566 12.635 13.635 12.723h6.812v8.705c0 .74.896 1.34 2 1.34s2-.6 2-1.34v-8.705h12v10.715c0 .739.896 1.339 2 1.339s2-.6 2-1.339v-10.715h8v4.688c0 1.109 1.343 2.009 3 2.009s3-.899 3-2.009v-4.688h6v7.701c0 .555.672 1.004 1.5 1.004s1.5-.449 1.5-1.004v-7.701h3.925c22.422 0 35.773-8.411 41.216-12.802 93.42-1.414 133.859-24.145 133.859-24.145h-369s6.052 24.051 47 24.224zm369-26.224l-37 2c2.132.532 4.979 4.558 9 10.161 7.008 9.768 7 14.062 7 14.062h26l-5-26.223z" opacity=".8"/><path fill="#FFF200" d="M195.925 29h-3.925v-11.5c0-.828-.672-1.5-1.5-1.5s-1.5.672-1.5 1.5v11.5h-6v-7c0-1.657-1.343-3-3-3s-3 1.343-3 3v7h-8v-16c0-1.104-.896-2-2-2s-2 .896-2 2v16h-12v-13c0-1.104-.896-2-2-2s-2 .896-2 2v13h-6.812c-9.068.132-12.467 12.447-13.635 19h-25.815c-.618-1.747-2.28-3-4.238-3h-7c-1.958 0-3.62 1.253-4.238 3h-38.262c-40.948.258-47 33-47 33s51.958 11.459 197 10c76.555-.771 174-10 174-10s-42.439-30.771-135.859-32.883c-5.443-6.556-18.794-19.117-41.216-19.117zm184.566 51.879l-2.491.121s.907.469 2.491-.121zm16.509-32.879s.008 6.414-7 21c-4.021 8.368-7.377 11.084-9.509 11.879l38.509-1.879 4-31h-26z"/><path fill="#DD3D3F" d="M407 34c-15.464 0-22 3.582-22 8s6.536 8 22 8 38-3.582 38-8-22.536-8-38-8z"/><path fill="#9E0B0F" d="M415 45c-13.35 1.011-29-2-29-2s2.077 7.768 27 7c13.808-.425 31-8 31-8s-15.65 1.989-29 3z"/><path fill="#E3D703" d="M126 51h-81c-2.209 0-21 3.791-21 6s18.791 2 21 2h81c2.209 0 4-1.791 4-4s-1.791-4-4-4zm107-1s-14.144-15.881-22-17c-6.88-.98-68.305-1.232-71 0s-2.964.491 0 3 29.414 3.418 41 3 12.985-2.886 26 0c11.866 2.631 17.79 11.202 17 13-12.661 2.07-39.799 5.807-56 5-30.602-1.523-35-8-35-8l1 7s36.207 5.453 46 5l56-4s19.426-.184 35 1l27 11h43s-42.074-13.184-55-15l-53-4zm178 2l-16 26h20l4-28-8 2z"/><path fill="#0076A3" d="M174.5 43c-2.485 0-4.5 2.015-4.5 4.5s2.015 4.5 4.5 4.5 4.5-2.015 4.5-4.5-2.015-4.5-4.5-4.5zm27-1c-2.485 0-4.5 2.015-4.5 4.5s2.015 4.5 4.5 4.5 4.5-2.015 4.5-4.5-2.015-4.5-4.5-4.5zm-13 1c-2.485 0-4.5 2.015-4.5 4.5s2.015 4.5 4.5 4.5 4.5-2.015 4.5-4.5-2.015-4.5-4.5-4.5z"/><path fill="#6DCFF6" d="M175.5 44c-2.485 0-4.5 2.015-4.5 4.5s2.015 4.5 4.5 4.5 4.5-2.015 4.5-4.5-2.015-4.5-4.5-4.5zm14 0c-2.485 0-4.5 2.015-4.5 4.5s2.015 4.5 4.5 4.5 4.5-2.015 4.5-4.5-2.015-4.5-4.5-4.5zm13-1c-2.485 0-4.5 2.015-4.5 4.5s2.015 4.5 4.5 4.5 4.5-2.015 4.5-4.5-2.015-4.5-4.5-4.5z"/><path fill="#DD3D3F" d="M97 5.5c0-1.933-1.567-3.5-3.5-3.5h-5c-1.933 0-3.5 1.567-3.5 3.5s1.567 3.5 3.5 3.5h3.5v38.5c0 1.381 1.119 2.5 2.5 2.5s2.5-1.119 2.5-2.5v-41c0-.157-.019-.309-.046-.458.027-.177.046-.357.046-.542z"/><path fill="#9E0B0F" d="M87.5 3c-.828 0-1.5.672-1.5 1.5v2c0 .828.672 1.5 1.5 1.5.829 0 1.5-.672 1.5-1.5v-2c0-.828-.671-1.5-1.5-1.5z"/><ellipse fill="#FB6268" cx="407.5" cy="40.5" rx="10.5" ry="3.5"/><circle fill="#ED1C24" cx="408.5" cy="63.5" r="10.5"/><circle fill="#fff" cx="410" cy="62" r="7"/><circle fill="#ED1C24" cx="411" cy="60" r="4"/><path fill="#ED1C24" d="M346.306 69.215c-2.851-1.19-5.876-2.429-9.139-3.753-104.102 9.035-211.905 8.6-324.247-1.462-1.316 1.014-2.559 2.192-3.691 3.467 115.951 12.923 224.564 7.545 337.077 1.748zm11.869 5.17c-2.473-1.136-5.023-2.261-7.716-3.414-116.61 6.065-225.396 11.505-342.842-1.532-1.013 1.351-1.898 2.759-2.618 4.153 119.764 11.621 228.498 9.297 353.176.793zm3.66 1.718c-128.682 9.923-237.223 10.047-357.787-.438-.545 1.363-.907 2.677-1.048 3.869 121.393 8.348 229.28 11.466 366 .17-2.386-1.257-4.753-2.444-7.165-3.601z"/><path fill="#FFF200" d="M83 66l-7 20 117 3 7-22z"/><path fill="#ED1C24" d="M99.93 72.436l6.286.152c2.895.07 4.447.78 4.654 2.13l7.75.188c-.037-.465-.146-.916-.328-1.353-.97-2.248-3.806-3.429-8.509-3.543l-22.505-.545-1.912 4.635 13.748.333.816-1.997zm9.07 7.133c-.612 1.474-2.943 2.218-6.992 2.231l-5.878-.143 2.219-5.396-13.748-.331-3.291 8.011 22.673.549c5.166.125 8.842-.642 11.027-2.302.962-.729 1.694-1.567 2.197-2.516l1.148-2.78.027-.144-8.134-.197-1.248 3.018zm46.404-1.924l-33.494-.812-3.291 8.011 13.748.333 2.475-6.038.912.022 2.825 6.263 13.748.332-2.609-6.257.6.015c2.239.054 3.934-.569 5.086-1.869zm-18.165-4.305l6.286.151c3.071.075 4.729.644 4.977 1.705l-.179.428 8.134.197c.061-1.183-.246-2.103-.918-2.759-.944-1.304-3.76-2.027-8.445-2.173l-22.506-.545-1.913 4.658 13.748.333.816-1.995zm21.932 4.395l-3.291 8.011 13.748.333 2.475-6.038.912.022 2.825 6.263 13.748.332-2.945-8.257-27.472-.666zm26.776-1.343l9.66-4.327-8.11-.197-11.03 4.438 9.525.23-.045-.144zm-10.35-4.813l-13.748-.333-1.913 4.659 13.748.333 1.913-4.659z"/></svg>