<svg xmlns="http://www.w3.org/2000/svg" width="34" height="99" viewBox="0 0 34 99"><path fill="#fff" d="M17.552.374c-8.837 0-16.552-2.499-16.552 5.479v77.706c0 7.978 7.164 14.445 16 14.445s16-6.468 16-14.445v-77.706c0-7.978-6.611-5.479-15.448-5.479z"/><path fill="#C1C1C1" d="M7 2h21v77h-21z"/><path fill="#00BFF3" d="M17.552 77.719c-7.035.117-14.345-.647-14.345 5.552 0 6.131.924 15.729 14.345 15.729 13.259 0 14.345-9.598 14.345-15.729-.001-6.437-7.042-5.672-14.345-5.552z"/><path fill="#C8EFFE" d="M29.314 85.485c-.98-1.17-3.582.149-5.812 2.945s-3.244 6.011-2.264 7.18c.979 1.17 3.581-.148 5.811-2.945 2.23-2.796 3.244-6.011 2.265-7.18z"/><path fill="#DADADA" d="M33 21.849v-2.989s-2.451-4.88-9.932-6.472v-9.467h-11.033v9.663c-6.878 1.575-11.035 5.28-11.035 5.28v2.988s3.903-4.334 11.035-6.165v12.841c-6.878 1.575-11.035 5.28-11.035 5.28v2.988s3.903-4.334 11.035-6.165v11.844c-6.878 1.575-11.035 5.28-11.035 5.28v2.988s3.903-4.334 11.035-6.165v13.837c-6.878 1.574-11.035 5.279-11.035 5.279v2.988s3.903-4.334 11.035-6.165v19.116h11.034v-19.415c7.667 1.742 9.931 7.462 9.931 7.462v-2.99s-2.451-4.88-9.932-6.472v-13.94c7.668 1.742 9.932 7.461 9.932 7.461v-2.988s-2.451-4.88-9.932-6.472v-11.948c7.668 1.741 9.932 7.462 9.932 7.462v-2.989s-2.451-4.88-9.932-6.472v-12.944c7.668 1.741 9.932 7.461 9.932 7.461z"/><path fill="#ED1C24" d="M16.448 2.366h3.311v76.709h-3.311z"/></svg>