<svg xmlns="http://www.w3.org/2000/svg" width="107" height="37" viewBox="0 0 107 37"><path fill="#737373" d="M104.5 5c-1.381 0-2.5 1.119-2.5 2.5v23c0 1.381 1.119 2.5 2.5 2.5s2.5-1.119 2.5-2.5v-23c0-1.381-1.119-2.5-2.5-2.5z"/><path fill="#fff" d="M36 2c-9.665 0-34 7.835-34 17.5s7.835 17.5 17.5 17.5h82v-35h-65.5z"/><path fill="#00BFF3" d="M8 7c-10.031 10.032-7 16-7 16l1 1h28v-14c0-4.222 1-8 1-8s-12.131-5.869-23 5zm29 17h8v-8h-8v8zm12 0h8v-8h-8v8zm12 0h8v-8h-8v8zm12 0h8v-8h-8v8zm12-8v8h8v-8h-8z"/><path fill="#C8EFFE" d="M23.08 4.437c-2.559-1.201-8.023.537-12.205 3.882-4.181 3.346-5.497 7.032-2.938 8.234 2.559 1.201 8.023-.537 12.205-3.883 4.182-3.345 5.497-7.031 2.938-8.233z"/><path fill="#DADADA" d="M30 3h72v7h-72z"/><path fill="#448CCB" d="M4 29c-1.104 0 .438 2.438 2 4 2.209 2.209 8.896 4 10 4h86v-8h-98z"/><path fill="#ED1C24" d="M3 27c-1.104 0 3.349 7.568 1 2-.429-1.018 1.896 4 3 4h95v-6h-99z"/></svg>