<svg xmlns="http://www.w3.org/2000/svg" width="102" height="37" viewBox="0 0 102 37"><path fill="#fff" d="M66 2h-65.5v35h82c9.665 0 17.5-7.835 17.5-17.5s-24.335-17.5-34-17.5z"/><path fill="#00BFF3" d="M94 7c-10.869-10.869-23-5-23-5s1 3.778 1 8v14h28l1-1s3.031-5.968-7-16zm-37 17h8v-8h-8v8zm-12 0h8v-8h-8v8zm-12 0h8v-8h-8v8zm-12 0h8v-8h-8v8zm-12 0h8v-8h-8v8z"/><path fill="#C8EFFE" d="M91.125 8.318c-4.182-3.345-9.646-5.083-12.205-3.882-2.559 1.202-1.244 4.889 2.938 8.233 4.182 3.346 9.646 5.084 12.205 3.883 2.558-1.201 1.243-4.888-2.938-8.234z"/><path fill="#DADADA" d="M0 3h72v7h-72z"/><path fill="#448CCB" d="M98 29h-98v8h86c1.104 0 7.791-1.791 10-4 1.562-1.562 3.104-4 2-4z"/><path fill="#ED1C24" d="M99 27h-99v6h95c1.104 0 3.43-5.018 3-4-2.349 5.568 2.104-2 1-2z"/></svg>