<svg xmlns="http://www.w3.org/2000/svg" width="34" height="104" viewBox="0 0 34 104"><path fill="#737373" d="M29.5 99h-24c-1.381 0-2.5 1.119-2.5 2.5s1.119 2.5 2.5 2.5h24c1.381 0 2.5-1.119 2.5-2.5s-1.119-2.5-2.5-2.5z"/><path fill="#fff" d="M17 .996c-8.836 0-16 6.468-16 14.445v77.706c0 7.978 7.715 5.479 16.552 5.479s15.448 2.499 15.448-5.479v-77.706c0-7.977-7.164-14.445-16-14.445z"/><path fill="#C1C1C1" d="M7 20h21v77h-21z"/><path fill="#00BFF3" d="M17.552 0c-13.421 0-14.345 9.598-14.345 15.729 0 6.199 7.31 5.436 14.345 5.552 7.304.12 14.345.885 14.345-5.552-.001-6.131-1.086-15.729-14.345-15.729z"/><path fill="#C8EFFE" d="M27.049 6.335c-2.229-2.797-4.832-4.115-5.811-2.945-.98 1.169.033 4.384 2.264 7.18 2.23 2.797 4.832 4.115 5.812 2.945.979-1.169-.035-4.384-2.265-7.18z"/><path fill="#DADADA" d="M33 39.849v-2.989s-2.451-4.88-9.932-6.472v-9.468h-11.033v9.663c-6.878 1.576-11.035 5.281-11.035 5.281v2.988s3.903-4.334 11.035-6.165v12.84c-6.878 1.576-11.035 5.281-11.035 5.281v2.988s3.903-4.334 11.035-6.165v11.844c-6.878 1.575-11.035 5.28-11.035 5.28v2.988s3.903-4.334 11.035-6.165v13.837c-6.878 1.574-11.035 5.279-11.035 5.279v2.988s3.903-4.334 11.035-6.165v19.116h11.034v-19.415c7.667 1.742 9.931 7.462 9.931 7.462v-2.99s-2.451-4.88-9.932-6.472v-13.94c7.668 1.742 9.932 7.461 9.932 7.461v-2.988s-2.451-4.88-9.932-6.472v-11.948c7.668 1.741 9.932 7.462 9.932 7.462v-2.989s-2.451-4.88-9.932-6.472v-12.944c7.668 1.741 9.932 7.461 9.932 7.461z"/><path fill="#ED1C24" d="M16.448 19.925h3.311v76.709h-3.311z"/></svg>