<svg xmlns="http://www.w3.org/2000/svg" width="112" height="65" viewBox="0 0 112 65"><path fill="#f00" d="M11.512 9.879c-1.754 3.379-3.648 10.303-3.648 10.303v26.667h7.295v-41.819s-1.893 1.47-3.647 4.849z"/><path d="M104.5 58h-97c-1.38 0-2.5 1.119-2.5 2.5s1.12 2.5 2.5 2.5h97c1.381 0 2.5-1.119 2.5-2.5s-1.119-2.5-2.5-2.5z" opacity=".231"/><path fill="#C1C1C1" d="M87.506 52.303h-65.051c-1.007 0-1.824.814-1.824 1.818s.816 1.818 1.824 1.818h65.051c1.008 0 1.824-.814 1.824-1.818s-.816-1.818-1.824-1.818z"/><path fill="#737373" d="M80.211 53.516h-15.199v-3.637h-14.592v3.637h-10.335c-.336 0-.608.813-.608 1.817 0 1.005.272 1.818.608 1.818h40.125c.335 0 .607-.813.607-1.818.001-1.004-.271-1.817-.606-1.817z"/><path fill="#737373" d="M4.824 24.424h3.04v14.546h-3.04z"/><path fill="#ED1C24" d="M88.722 31.697l-3.04-11.515 1.216-6.061-4.864-3.636h-7.296v40h14.592z"/><path fill="#00BFF3" d="M103.312 28.061c-2.69-10-17.022-13.939-17.022-13.939l-1.216 5.455 2.432 9.091 7.903 10.909h10.335c0-.001.26-1.516-2.432-11.516z"/><path fill="#9E0B0F" d="M71.092 25.03h3.646v24.849h-3.646z"/><path fill="#666" d="M66.228 4.424h-50.461v46.061h56.54z"/><path fill="#fff" d="M60.756 6.242h-38.909v17.576h3.04l29.181 15.152h10.944z"/><path fill="#f00" d="M71.092 40.182h-15.2s-.985.531-4.863-1.212c-3.878-1.743-24.926-12.121-24.926-12.121s-.113-1.218-3.04-1.212c-2.926.005-7.903 0-7.903 0v2.424h7.903l28.574 13.939s1.831.549 3.647.606c1.817.057 16.415 0 16.415 0l-.607-2.424z"/><path fill="#f00" d="M71.092 45.03h-15.2s-.985.531-4.863-1.212c-3.878-1.743-24.926-12.121-24.926-12.121s-.113-1.216-3.04-1.213c-4.932.006-7.903 0-7.903 0v2.425h7.903l28.574 13.939s1.831.549 3.647.606c1.817.057 16.415 0 16.415 0l-.607-2.424z"/><path fill="#fff" d="M42.517 43.818s-7.195-3.605-12.767-4.242c-5.571-.638-14.803-1.714-18.238 0-3.436 1.713-8.512 8.485-8.512 8.485v2.425l.608 1.212h42.557l-3.648-7.88z"/><path fill="#9E0B0F" d="M96.625 39.576l-5.472-9.697h-13.374v18.788h19.453z"/><path fill="#fff" d="M109.393 42.606c-.234-3.971-3.648-4.243-3.648-4.243l-10.336.607-19.454 6.667 3.039 6.061 28.574 4.849c0-.001 2.059-9.971 1.825-13.941z"/><path fill="#fff" d="M88.113 26.849c-.671 0-1.215.543-1.215 1.212v6.667c0 .669.544 1.212 1.215 1.212.672 0 1.217-.543 1.217-1.212v-6.667c0-.669-.545-1.212-1.217-1.212z"/><path fill="#fff" d="M73.826 4.424c-.503 0-.911.407-.911.909v15.151c0 .503.408.909.911.909.504 0 .912-.406.912-.909v-15.151c0-.502-.408-.909-.912-.909z"/><ellipse fill="#737373" cx="93.889" cy="53.818" rx="8.207" ry="8.182"/><ellipse fill="#fff" cx="93.889" cy="53.818" rx="5.167" ry="5.151"/><ellipse fill="#A7A7A7" cx="94.193" cy="54.121" rx="1.824" ry="1.818"/><ellipse fill="#737373" cx="30.662" cy="53.818" rx="8.208" ry="8.182"/><ellipse fill="#fff" cx="30.662" cy="53.818" rx="5.167" ry="5.151"/><ellipse fill="#A7A7A7" cx="30.966" cy="54.121" rx="1.824" ry="1.818"/><ellipse fill="#737373" cx="13.639" cy="53.818" rx="8.207" ry="8.182"/><ellipse fill="#fff" cx="13.639" cy="53.818" rx="5.167" ry="5.151"/><ellipse fill="#A7A7A7" cx="13.943" cy="54.121" rx="1.824" ry="1.818"/><path fill="#57D6F9" d="M99.705 24.199c-2.391-3.333-5.383-5.284-6.684-4.357-1.3.927-.416 4.38 1.975 7.714 2.391 3.333 5.383 5.283 6.683 4.356s.417-4.38-1.974-7.713z"/><ellipse fill="#fff" cx="95.409" cy="25.636" rx="2.432" ry="2.424"/><ellipse fill="#f00" cx="43.963" cy="19.273" rx="9.423" ry="9.394"/><ellipse fill="#fff" cx="45.179" cy="18.061" rx="6.384" ry="6.363"/><ellipse fill="#f00" cx="47.003" cy="16.849" rx="3.344" ry="3.333"/><path fill="#ED1C24" d="M74.131 2c-1.008 0-1.824.814-1.824 1.818v2.424c0 1.005.816 1.818 1.824 1.818s1.824-.813 1.824-1.818v-2.424c0-1.004-.816-1.818-1.824-1.818z"/><path fill="#ED1C24" d="M80.514 31.697c-.839 0-1.52.678-1.52 1.515v1.818c0 .837.681 1.516 1.52 1.516.84 0 1.521-.679 1.521-1.516v-1.818c-.001-.837-.681-1.515-1.521-1.515z"/><path fill="#FFF200" d="M108.176 42c-1.007 0-1.823.814-1.823 1.818v3.03c0 1.004.816 1.818 1.823 1.818 1.008 0 1.824-.814 1.824-1.818v-3.03c0-1.004-.816-1.818-1.824-1.818z"/><path fill="#fff" d="M88.722 31.697h5.472v1.212h-5.472z"/></svg>