<svg xmlns="http://www.w3.org/2000/svg" width="112" height="65" viewBox="0 0 112 65"><path fill="#f00" d="M101.488 9.879c-1.754-3.379-3.647-4.849-3.647-4.849v41.818h7.296v-26.666s-1.895-6.924-3.649-10.303z"/><path d="M105.5 58h-97c-1.381 0-2.5 1.119-2.5 2.5s1.119 2.5 2.5 2.5h97c1.381 0 2.5-1.119 2.5-2.5s-1.119-2.5-2.5-2.5z" opacity=".231"/><path fill="#C1C1C1" d="M90.545 52.303h-65.051c-1.007 0-1.824.814-1.824 1.818s.816 1.818 1.824 1.818h65.051c1.008 0 1.824-.814 1.824-1.818s-.816-1.818-1.824-1.818z"/><path fill="#737373" d="M72.914 53.516h-10.334v-3.637h-14.591v3.637h-15.199c-.335 0-.608.813-.608 1.817 0 1.005.272 1.818.608 1.818h40.125c.336 0 .608-.813.608-1.818-.001-1.004-.273-1.817-.609-1.817z"/><path fill="#737373" d="M105.137 24.424h3.039v14.546h-3.039z"/><path fill="#ED1C24" d="M30.966 10.485l-4.864 3.636 1.216 6.061-3.04 11.515-.608 18.788h14.591v-40z"/><path fill="#00BFF3" d="M26.71 14.121s-14.332 3.939-17.022 13.939c-2.691 10-2.432 11.516-2.432 11.516h10.335l7.903-10.909 2.432-9.091-1.216-5.455z"/><path fill="#9E0B0F" d="M38.261 25.03h3.647v24.849h-3.647z"/><path fill="#666" d="M46.772 4.424l-6.079 46.061h56.539v-46.061z"/><path fill="#fff" d="M52.244 6.242l-4.255 32.728h10.943l29.181-15.152h3.04v-17.576z"/><path fill="#f00" d="M89.938 25.637c-2.927-.006-3.04 1.212-3.04 1.212s-21.048 10.378-24.927 12.121c-3.877 1.743-4.863 1.212-4.863 1.212h-15.199l-.607 2.425s14.598.057 16.415 0c1.816-.058 3.646-.607 3.646-.607l28.574-13.939h7.903v-2.424c.001 0-4.977.005-7.902 0z"/><path fill="#f00" d="M89.938 30.484c-2.927-.003-3.04 1.213-3.04 1.213s-21.048 10.378-24.927 12.121c-3.877 1.743-4.863 1.212-4.863 1.212h-15.199l-.607 2.425s14.598.057 16.415 0c1.817-.058 3.647-.606 3.647-.606l28.574-13.939h7.903v-2.425c0-.001-2.972.005-7.903-.001z"/><path fill="#fff" d="M101.488 39.576c-3.436-1.714-12.667-.638-18.238 0-5.572.637-12.768 4.242-12.768 4.242l-3.647 7.879h42.557l.608-1.212v-2.425c0 .001-5.076-6.771-8.512-8.484z"/><path fill="#9E0B0F" d="M21.847 29.879l-5.472 9.697-.608 9.091h19.454v-18.788z"/><path fill="#fff" d="M17.591 38.97l-10.336-.607s-3.413.272-3.647 4.243c-.234 3.97 1.824 13.939 1.824 13.939l28.574-4.849 3.04-6.061-19.455-6.665z"/><path fill="#fff" d="M24.886 26.849c-.671 0-1.216.543-1.216 1.212v6.667c0 .669.544 1.212 1.216 1.212s1.216-.543 1.216-1.212v-6.667c0-.669-.544-1.212-1.216-1.212z"/><path fill="#fff" d="M39.173 4.424c-.504 0-.912.407-.912.909v15.151c0 .503.408.909.912.909.503 0 .912-.406.912-.909v-15.151c0-.502-.408-.909-.912-.909z"/><ellipse fill="#737373" cx="19.111" cy="53.818" rx="8.208" ry="8.182"/><ellipse fill="#fff" cx="19.111" cy="53.818" rx="5.168" ry="5.151"/><ellipse fill="#A7A7A7" cx="18.807" cy="54.121" rx="1.824" ry="1.818"/><ellipse fill="#737373" cx="82.338" cy="53.818" rx="8.207" ry="8.182"/><ellipse fill="#fff" cx="82.338" cy="53.818" rx="5.168" ry="5.151"/><ellipse fill="#A7A7A7" cx="82.034" cy="54.121" rx="1.824" ry="1.818"/><ellipse fill="#737373" cx="99.361" cy="53.818" rx="8.208" ry="8.182"/><ellipse fill="#fff" cx="99.361" cy="53.818" rx="5.168" ry="5.151"/><ellipse fill="#A7A7A7" cx="99.057" cy="54.121" rx="1.824" ry="1.818"/><path fill="#57D6F9" d="M19.978 19.842c-1.3-.927-4.292 1.024-6.683 4.357s-3.274 6.786-1.974 7.713 4.292-1.023 6.683-4.356c2.391-3.334 3.274-6.787 1.974-7.714z"/><ellipse fill="#fff" cx="17.591" cy="25.636" rx="2.432" ry="2.424"/><ellipse fill="#f00" cx="68.963" cy="19.273" rx="9.423" ry="9.394"/><ellipse fill="#fff" cx="70.18" cy="18.061" rx="6.385" ry="6.363"/><ellipse fill="#f00" cx="72.003" cy="16.849" rx="3.344" ry="3.333"/><path fill="#ED1C24" d="M38.869 2c-1.007 0-1.824.814-1.824 1.818v2.424c0 1.005.816 1.818 1.824 1.818s1.824-.813 1.824-1.818v-2.424c0-1.004-.817-1.818-1.824-1.818z"/><path fill="#ED1C24" d="M32.486 31.697c-.84 0-1.52.678-1.52 1.515v1.818c0 .837.68 1.516 1.52 1.516.839 0 1.52-.679 1.52-1.516v-1.818c-.001-.837-.681-1.515-1.52-1.515z"/><path fill="#FFF200" d="M4.824 42c-1.008 0-1.824.814-1.824 1.818v3.03c0 1.004.816 1.818 1.824 1.818s1.824-.814 1.824-1.818v-3.03c-.001-1.004-.817-1.818-1.824-1.818z"/><path fill="#fff" d="M18.807 31.697h5.472v1.212h-5.472z"/></svg>