<svg xmlns="http://www.w3.org/2000/svg" width="37" height="112" viewBox="0 0 37 112"><path d="M1 19h34.326v91h-34.326z" opacity=".2"/><path fill="#737373" d="M1.673 35h8.75v-33h-8.75v33zm0 54h8.75v-33h-8.75v33zm25.577 0h8.75v-33h-8.75v33zm0-87v33h8.75v-33h-8.75z"/><path fill="#fff" d="M33.308 88c-1.408-41.031-2.039-7-5.384-7h-16.155c-6.173-30.073-6.058 4.029-6.058 9s2.712 9 6.058 9h16.155c3.345 0 5.629-3.866 5.384-11z"/><path fill="#8E8E8E" d="M3.692 13h30.288v54h-30.288z"/><path fill="#fff" d="M6.385 17h24.904v47h-24.904z"/><path fill="#8E8E8E" d="M16.481 10h4.711v57h-4.711z"/><path fill="#666" d="M15.808 2h6.058v4h-6.058z"/><ellipse fill="#fff" cx="11.096" cy="71" rx="1.346" ry="2"/><path fill="#f00" d="M27.586 6h-18.172c-1.302 0-2.356 1.567-2.356 3.5s1.054 3.5 2.356 3.5h18.172c1.302 0 2.356-1.567 2.356-3.5s-1.054-3.5-2.356-3.5z"/><path fill="#f00" d="M13.115 12h3.366v55h-3.366z"/><path fill="#f00" d="M21.192 12h3.365v55h-3.365z"/><path fill="#f00" d="M7.731 69h23.558v21h-23.558z"/><path fill="#00BFF3" d="M27.25 82h-15.481c-3.717 0-2.692 4.478-2.692 10 0 5.523 3.013 9 6.73 9h7.403c3.718 0 6.731-3.477 6.731-9 .001-5.522 1.026-10-2.691-10z"/><ellipse fill="#57D6F9" cx="20.52" cy="96" rx="5.385" ry="3"/><ellipse fill="#fff" cx="23.5" cy="94.5" rx="2.513" ry="2.5"/><circle fill="#fff" cx="13.002" cy="77" r="2"/><circle fill="#fff" cx="19.001" cy="77" r="2"/><circle fill="#fff" cx="25" cy="77" r="2"/></svg>