<svg xmlns="http://www.w3.org/2000/svg" width="39" height="112" viewBox="0 0 39 112"><path d="M2 19h34.327v91h-34.327z" opacity=".2"/><path fill="#737373" d="M2.673 47h8.75v-33h-8.75v33zm0 54h8.75v-33h-8.75v33zm25.577-87v33h8.75v-33h-8.75zm0 87h8.75v-33h-8.75v33z"/><path fill="#fff" d="M28.924 4h-16.154c-3.346 0-6.058 4.029-6.058 9s-.115 39.073 6.058 9h16.154c3.345 0 3.976 34.031 5.384-7 .245-7.134-2.039-11-5.384-11z"/><path fill="#8E8E8E" d="M4.692 36h30.288v54h-30.288z"/><path fill="#fff" d="M7.385 39h24.904v47h-24.904z"/><path fill="#8E8E8E" d="M17.481 36h4.711v57h-4.711z"/><path fill="#666" d="M16.808 97h6.058v4h-6.058z"/><ellipse fill="#fff" cx="12.096" cy="32" rx="1.346" ry="2"/><path fill="#f00" d="M28.586 90h-18.172c-1.301 0-2.356 1.567-2.356 3.5s1.054 3.5 2.356 3.5h18.172c1.302 0 2.356-1.567 2.356-3.5s-1.054-3.5-2.356-3.5z"/><path fill="#f00" d="M14.115 36h3.366v55h-3.366z"/><path fill="#f00" d="M22.192 36h3.365v55h-3.365z"/><path fill="#f00" d="M8.731 13h23.558v21h-23.558z"/><path fill="#00BFF3" d="M30.942 11c0-5.522-3.014-9-6.731-9h-7.403c-3.717 0-6.73 3.478-6.73 9s-1.026 10 2.692 10h15.48c3.717 0 2.692-4.478 2.692-10z"/><ellipse fill="#57D6F9" cx="21.52" cy="7" rx="5.385" ry="3"/><ellipse fill="#fff" cx="24.5" cy="8.5" rx="2.513" ry="2.5"/><circle fill="#fff" cx="14.002" cy="26" r="2"/><circle fill="#fff" cx="20.002" cy="26" r="2"/><circle fill="#fff" cx="26" cy="26" r="2"/></svg>