<svg xmlns="http://www.w3.org/2000/svg" width="1024" height="640" viewBox="0 0 3000 1874" enable-background="new 0 0 3000 1874"><path fill="#ED1C24" d="M1511 740c-19.33 0-35 15.67-35 35v30c0 19.33 15.67 35 35 35s35-15.67 35-35v-30c0-19.33-15.67-35-35-35z"/><ellipse fill="#C11D23" cx="1487.5" cy="789.5" rx="9.5" ry="36.5"/><ellipse fill="#EF5359" cx="1532" cy="812.5" rx="7" ry="10.5"/><path fill="#fff" d="M1546 774v-7s-6.554-12.015-27.002-14.54c-.021-3.601-2.921-10.46-6.498-10.46-3.484 0-6.32 6.501-6.484 10.166-25.301 1.689-31.016 15.834-31.016 15.834l1 4s6.407-14.051 30-15.833v13c-25.287 1.694-31 15.833-31 15.833l1 4s6.407-14.051 30-15.833v14c-25.287 1.694-31 15.833-31 15.833l1 4s6.407-14.051 30-15.833v11.333c0 3.59 3.41 8.5 7 8.5s6-4.91 6-8.5v-11.055c23.125 2.817 27 17.555 27 17.555v-7s-6.554-12.014-27-14.54v-14.015c23.125 2.817 27 17.555 27 17.555v-7s-6.554-12.014-27-14.54v-13.015c23.125 2.818 27 17.555 27 17.555z"/><path fill="#ED1C24" d="M819 815c-19.33 0-35 15.67-35 35v30c0 19.33 15.67 35 35 35s35-15.67 35-35v-30c0-19.33-15.67-35-35-35z"/><ellipse fill="#C11D23" cx="795.5" cy="864.5" rx="9.5" ry="36.5"/><ellipse fill="#EF5359" cx="840" cy="887.5" rx="7" ry="10.5"/><path fill="#fff" d="M854 849v-7s-6.554-12.015-27.002-14.54c-.021-3.601-2.921-10.46-6.498-10.46-3.484 0-6.32 6.501-6.484 10.166-25.301 1.689-31.016 15.834-31.016 15.834l1 4s6.406-14.051 30-15.833v13c-25.287 1.694-31 15.833-31 15.833l1 4s6.406-14.051 30-15.833v14c-25.287 1.694-31 15.833-31 15.833l1 4s6.406-14.051 30-15.833v11.333c0 3.59 3.41 8.5 7 8.5s6-4.91 6-8.5v-11.055c23.125 2.818 27 17.555 27 17.555v-7s-6.554-12.014-27-14.54v-14.015c23.125 2.818 27 17.555 27 17.555v-7s-6.554-12.014-27-14.54v-13.015c23.125 2.818 27 17.555 27 17.555z"/><path fill="#fff" d="M1544 1286l-117 15s-2.396 35.631 8 36h82s12.293.459 21-7c8.482-7.266 6-44 6-44z"/><path fill="#6DCFF6" d="M1499.074 1317.667h-34.148c-2.721 0-4.926 2.238-4.926 5 0 2.761 2.205 5 4.926 5h34.148c2.721 0 4.926-2.239 4.926-5 0-2.762-2.205-5-4.926-5z"/><path fill="#fff" d="M1470.508 1329h1.97v-12h-1.97v12zm10.507 0h1.971v-12h-1.971v12zm10.507-12v12h1.97v-12h-1.97z"/><path fill="#ED1C24" d="M1545 1256c0-19.33-15.67-35-35-35s-35 15.67-35 35v15h-41.5c-10.77 0-26.5.23-26.5 11s15.73 28 26.5 28h81.5c10.77 0 30-8.73 30-19.5 0-1.552-.2-3.053-.543-4.5h.543v-30z"/><path fill="#C11D23" d="M1535 1245c-3.313 0-6 1.557-6 3.478v44.045c0 1.921 2.687 3.478 6 3.478s6-1.557 6-3.478v-44.045c0-1.921-2.687-3.478-6-3.478z"/><path fill="#fff" d="M1545 1255v-7s-6.554-12.015-27.002-14.54c-.021-3.601-2.921-10.46-6.498-10.46-3.484 0-6.32 6.501-6.484 10.166-25.301 1.689-31.016 15.834-31.016 15.834l1 4s6.406-14.051 30-15.833v26.076c-13.668-.612-30 2.757-30 2.757v3c-1.104 0-2 .896-2 2v4h-17v-4c0-1.104-.896-2-2-2s-2 .896-2 2v4h-16v-4c0-1.104-.896-2-2-2s-2 .896-2 2v4h-3.869c-5.516 0-16.131 2.91-16.131 6.5s10.615 6.5 16.131 6.5h3.869v22c0 1.104.896 2 2 2s2-.896 2-2v-22h16v22c0 1.104.896 2 2 2s2-.896 2-2v-22h17v22c0 1.104.896 2 2 2s2-.896 2-2v-22h27.942c5.031 0 11.733-2.84 12.872-6.064l.186.064v-11.339c19.149 7.452 20 31.339 20 31.339l4-3s-3.869-25.301-24-33.259v-28.296c23.125 2.818 27 17.555 27 17.555zm-40 20.002l-.058-.002h-27.942v-4c0-.221-.044-.43-.11-.628 3.977-1.202 14.095-3.594 28.11-2.288v6.918z"/><path fill="#fff" d="M902 1308l-114-22s-2.482 36.734 6 44c8.707 7.459 21 7 21 7s64.432-.433 74 0c16.43.742 13-29 13-29z"/><path fill="#6DCFF6" d="M867.074 1317.667h-34.148c-2.721 0-4.926 2.238-4.926 5 0 2.761 2.205 5 4.926 5h34.148c2.721 0 4.926-2.239 4.926-5 0-2.762-2.205-5-4.926-5z"/><path fill="#fff" d="M859.522 1317v12h1.97v-12h-1.97zm-10.507 12h1.971v-12h-1.971v12zm-10.507 0h1.97v-12h-1.97v12z"/><path fill="#ED1C24" d="M898.5 1271h-41.5v-15c0-19.33-15.67-35-35-35s-35 15.67-35 35v30h.543c-.343 1.447-.543 2.948-.543 4.5 0 10.77 19.23 19.5 30 19.5h81.5c10.77 0 26.5-17.23 26.5-28s-15.73-11-26.5-11z"/><path fill="#C11D23" d="M797 1245c-3.313 0-6 1.557-6 3.478v44.045c0 1.921 2.687 3.478 6 3.478s6-1.557 6-3.478v-44.045c0-1.921-2.687-3.478-6-3.478z"/><path fill="#fff" d="M903.869 1275h-3.869v-4c0-1.104-.896-2-2-2s-2 .896-2 2v4h-16v-4c0-1.104-.896-2-2-2s-2 .896-2 2v4h-17v-4c0-1.104-.896-2-2-2v-3s-16.332-3.369-30-2.757v-26.076c23.593 1.782 30 15.833 30 15.833l1-4s-5.715-14.145-31.016-15.834c-.164-3.665-3-10.166-6.484-10.166-3.577 0-6.478 6.859-6.498 10.46-20.448 2.525-27.002 14.54-27.002 14.54v7s3.875-14.737 27-17.555v28.296c-20.131 7.958-24 33.259-24 33.259l4 3s.851-23.887 20-31.339v11.339l.186-.064c1.139 3.225 7.841 6.064 12.873 6.064h27.941v22c0 1.104.896 2 2 2s2-.896 2-2v-22h17v22c0 1.104.896 2 2 2s2-.896 2-2v-22h16v22c0 1.104.896 2 2 2s2-.896 2-2v-22h3.869c5.516 0 16.131-2.91 16.131-6.5s-10.615-6.5-16.131-6.5zm-48.869-4v4h-27.941l-.059.002v-6.918c14.015-1.306 24.134 1.086 28.11 2.288-.065.198-.11.407-.11.628z"/></svg>