<svg xmlns="http://www.w3.org/2000/svg" width="88" height="88" viewBox="0 0 88 88"><path fill="#fff" d="M46 22c-.271-5.142-2-21-2-21s-2.396 11.05-3 21l2 22h1s2.373-14.922 2-22z" enable-background="new"/><path fill="#fff" d="M65.055 52.619c-8.438-5.308-20.258-8.811-20.258-8.811l-.48.878s11.949 9.246 18.338 12.318c4.64 2.23 19.381 8.329 19.381 8.329s-8.542-7.406-16.981-12.714z" enable-background="new"/><path fill="#fff" d="M42.349 44.079s-14.298 5.456-20.302 9.357c-4.361 2.835-17.349 12.358-17.349 12.358s10.919-3.48 19.945-7.977l18.224-12.862-.518-.876z" enable-background="new"/><circle fill="#ED1C24" cx="43.5" cy="43.5" r="5.5" enable-background="new"/></svg>